<?xml version="1.0" encoding="UTF-8" standalone="no"?>
<!-- Created with Inkscape (http://www.inkscape.org/) -->
<svg
   xmlns:dc="http://purl.org/dc/elements/1.1/"
   xmlns:cc="http://web.resource.org/cc/"
   xmlns:rdf="http://www.w3.org/1999/02/22-rdf-syntax-ns#"
   xmlns:svg="http://www.w3.org/2000/svg"
   xmlns="http://www.w3.org/2000/svg"
   xmlns:xlink="http://www.w3.org/1999/xlink"
   xmlns:sodipodi="http://sodipodi.sourceforge.net/DTD/sodipodi-0.dtd"
   xmlns:inkscape="http://www.inkscape.org/namespaces/inkscape"
   width="48"
   height="48"
   id="svg2"
   sodipodi:version="0.32"
   inkscape:version="0.45.1"
   version="1.0"
   sodipodi:docbase="/Users/Marc/Desktop/eyeOS/v 1.2/Icones/FINAL/48x48/System"
   sodipodi:docname="software.svg"
   inkscape:output_extension="org.inkscape.output.svg.inkscape"
   inkscape:export-filename="/Users/Marc/Desktop/lala.png"
   inkscape:export-xdpi="90"
   inkscape:export-ydpi="90">
  <defs
     id="defs4">
    <linearGradient
       inkscape:collect="always"
       id="linearGradient12527">
      <stop
         style="stop-color:#e8e8e8;stop-opacity:1;"
         offset="0"
         id="stop12529" />
      <stop
         style="stop-color:#e8e8e8;stop-opacity:0;"
         offset="1"
         id="stop12531" />
    </linearGradient>
    <linearGradient
       id="linearGradient10088">
      <stop
         style="stop-color:#4585c2;stop-opacity:0.74226803;"
         offset="0"
         id="stop10090" />
      <stop
         style="stop-color:#4585c2;stop-opacity:1;"
         offset="1"
         id="stop10092" />
    </linearGradient>
    <linearGradient
       inkscape:collect="always"
       id="linearGradient3205">
      <stop
         style="stop-color:#a4c0e4;stop-opacity:1;"
         offset="0"
         id="stop3207" />
      <stop
         style="stop-color:#dbe6f5;stop-opacity:1"
         offset="1"
         id="stop3209" />
    </linearGradient>
    <linearGradient
       id="linearGradient3145">
      <stop
         style="stop-color:#ededed;stop-opacity:1;"
         offset="0"
         id="stop3147" />
      <stop
         style="stop-color:#ffffff;stop-opacity:1"
         offset="1"
         id="stop3149" />
    </linearGradient>
    <linearGradient
       inkscape:collect="always"
       xlink:href="#linearGradient3205"
       id="linearGradient3217"
       gradientUnits="userSpaceOnUse"
       x1="7.3748031"
       y1="18.979528"
       x2="5.1795278"
       y2="13.055119" />
    <linearGradient
       gradientUnits="userSpaceOnUse"
       y2="-0.46061775"
       x2="92.823532"
       y1="97.108009"
       x1="26.999334"
       id="linearGradient2964"
       xlink:href="#linearGradient3746"
       inkscape:collect="always" />
    <clipPath
       id="clipPath2950"
       clipPathUnits="userSpaceOnUse">
      <polygon
         style="fill:#e20071"
         points="21.666,11.333 27.666,95.667 86.333,114.667 90,3 21.666,11.333 "
         id="polygon2952" />
    </clipPath>
    <linearGradient
       id="linearGradient2966">
      <stop
         id="stop2968"
         offset="0"
         style="stop-color:#090909;stop-opacity:1;" />
      <stop
         id="stop2970"
         offset="1"
         style="stop-color:#555753;stop-opacity:1;" />
    </linearGradient>
    <linearGradient
       id="linearGradient3746">
      <stop
         style="stop-color:#000000;stop-opacity:0.31645569;"
         offset="0"
         id="stop3748" />
      <stop
         id="stop3752"
         offset="0.14401203"
         style="stop-color:#000000;stop-opacity:1;" />
      <stop
         style="stop-color:#000000;stop-opacity:0;"
         offset="1"
         id="stop3750" />
    </linearGradient>
    <linearGradient
       id="linearGradient3757">
      <stop
         id="stop3759"
         offset="0"
         style="stop-color:#ffffff;stop-opacity:1;" />
      <stop
         id="stop3761"
         offset="1"
         style="stop-color:#ffffff;stop-opacity:0;" />
    </linearGradient>
    <clipPath
       id="XMLID_12_">
      <use
         height="263.04199"
         width="263.043"
         y="0"
         x="0"
         id="use23"
         xlink:href="#XMLID_5_" />
    </clipPath>
    <linearGradient
       y2="6.7017999"
       x2="38.213299"
       y1="117.2979"
       x1="89.785202"
       gradientUnits="userSpaceOnUse"
       id="XMLID_5_">
      <stop
         id="stop21"
         style="stop-color:#80A7D6"
         offset="0" />
      <stop
         id="stop23"
         style="stop-color:#91B4DE"
         offset="0.0338" />
      <stop
         id="stop25"
         style="stop-color:#A7C4E8"
         offset="0.0887" />
      <stop
         id="stop27"
         style="stop-color:#B5CEEE"
         offset="0.1414" />
      <stop
         id="stop11003"
         style="stop-color:#B9D1F0"
         offset="0.1893" />
      <stop
         id="stop11005"
         style="stop-color:#B7D0EF"
         offset="0.3149" />
      <stop
         id="stop33"
         style="stop-color:#B0CAEC"
         offset="0.3683" />
      <stop
         id="stop35"
         style="stop-color:#A3C1E7"
         offset="0.4079" />
      <stop
         id="stop37"
         style="stop-color:#92B4DF"
         offset="0.4408" />
      <stop
         id="stop39"
         style="stop-color:#7BA3D6"
         offset="0.4695" />
      <stop
         id="stop41"
         style="stop-color:#5F8FCA"
         offset="0.4949" />
      <stop
         id="stop11012"
         style="stop-color:#588AC7"
         offset="0.5" />
      <stop
         id="stop11014"
         style="stop-color:#6697CC"
         offset="0.5138" />
      <stop
         id="stop11016"
         style="stop-color:#7DABD5"
         offset="0.5428" />
      <stop
         id="stop49"
         style="stop-color:#8EBBDC"
         offset="0.5765" />
      <stop
         id="stop51"
         style="stop-color:#9BC7E0"
         offset="0.617" />
      <stop
         id="stop53"
         style="stop-color:#A2CDE3"
         offset="0.6716" />
      <stop
         id="stop55"
         style="stop-color:#A4CFE4"
         offset="0.8" />
      <stop
         id="stop57"
         style="stop-color:#80A7D6"
         offset="1" />
    </linearGradient>
    <linearGradient
       gradientTransform="translate(-201,35)"
       spreadMethod="pad"
       xlink:href="#XMLID_5_"
       y2="32.006401"
       x2="12.0493"
       y1="91.994102"
       x1="115.9512"
       gradientUnits="userSpaceOnUse"
       id="XMLID_6_">
      <stop
         id="stop11024"
         style="stop-color:white;stop-opacity:0;"
         offset="0" />
      <stop
         offset="0.3412081"
         style="stop-color:white;stop-opacity:0;"
         id="stop2828" />
      <stop
         id="stop11027"
         style="stop-color:#FFFFFF"
         offset="0.49475175" />
      <stop
         offset="0.66897529"
         style="stop-color:white;stop-opacity:0;"
         id="stop2830" />
      <stop
         id="stop11030"
         style="stop-color:white;stop-opacity:0;"
         offset="1" />
    </linearGradient>
    <radialGradient
       gradientTransform="translate(-201,35)"
       gradientUnits="userSpaceOnUse"
       r="23"
       cy="62"
       cx="64"
       id="XMLID_8_">
      <stop
         id="stop11033"
         style="stop-color:#555555"
         offset="0.432" />
      <stop
         id="stop11035"
         style="stop-color:#727272"
         offset="0.4374" />
      <stop
         id="stop138"
         style="stop-color:#939393"
         offset="0.4449" />
      <stop
         id="stop140"
         style="stop-color:#B0B0B0"
         offset="0.4533" />
      <stop
         id="stop142"
         style="stop-color:#C7C7C7"
         offset="0.4626" />
      <stop
         id="stop144"
         style="stop-color:#D8D8D8"
         offset="0.4733" />
      <stop
         id="stop146"
         style="stop-color:#E5E5E5"
         offset="0.4862" />
      <stop
         id="stop148"
         style="stop-color:#ECECEC"
         offset="0.5035" />
      <stop
         id="stop150"
         style="stop-color:#EEEEEE"
         offset="0.5444" />
      <stop
         id="stop152"
         style="stop-color:#ECECEC"
         offset="0.6957" />
      <stop
         id="stop154"
         style="stop-color:#E5E5E5"
         offset="0.7599" />
      <stop
         id="stop156"
         style="stop-color:#D8D8D8"
         offset="0.8077" />
      <stop
         id="stop158"
         style="stop-color:#C7C7C7"
         offset="0.8473" />
      <stop
         id="stop160"
         style="stop-color:#B0B0B0"
         offset="0.8819" />
      <stop
         id="stop162"
         style="stop-color:#949494"
         offset="0.9124" />
      <stop
         id="stop164"
         style="stop-color:#888888"
         offset="0.9231" />
      <stop
         id="stop166"
         style="stop-color:#949494"
         offset="0.9252" />
      <stop
         id="stop168"
         style="stop-color:#B0B0B0"
         offset="0.9314" />
      <stop
         id="stop170"
         style="stop-color:#C7C7C7"
         offset="0.9385" />
      <stop
         id="stop172"
         style="stop-color:#D8D8D8"
         offset="0.9465" />
      <stop
         id="stop174"
         style="stop-color:#E5E5E5"
         offset="0.9562" />
      <stop
         id="stop176"
         style="stop-color:#ECECEC"
         offset="0.9693" />
      <stop
         id="stop178"
         style="stop-color:#EEEEEE"
         offset="1" />
    </radialGradient>
    <linearGradient
       inkscape:collect="always"
       xlink:href="#XMLID_5_"
       id="linearGradient9089"
       gradientUnits="userSpaceOnUse"
       gradientTransform="translate(-414.33334,35)"
       x1="89.785202"
       y1="117.2979"
       x2="38.213299"
       y2="6.7017999" />
    <linearGradient
       inkscape:collect="always"
       xlink:href="#XMLID_6_"
       id="linearGradient9091"
       gradientUnits="userSpaceOnUse"
       gradientTransform="translate(-414.33334,35)"
       spreadMethod="pad"
       x1="115.9512"
       y1="91.994102"
       x2="12.0493"
       y2="32.006401" />
    <radialGradient
       inkscape:collect="always"
       xlink:href="#XMLID_8_"
       id="radialGradient9093"
       gradientUnits="userSpaceOnUse"
       gradientTransform="translate(-414.33334,35)"
       cx="64"
       cy="62"
       r="23" />
    <radialGradient
       inkscape:collect="always"
       xlink:href="#linearGradient10088"
       id="radialGradient10096"
       cx="-350.33334"
       cy="97"
       fx="-350.33334"
       fy="97"
       r="62.400002"
       gradientUnits="userSpaceOnUse" />
    <linearGradient
       inkscape:collect="always"
       xlink:href="#linearGradient3145"
       id="linearGradient10100"
       gradientUnits="userSpaceOnUse"
       gradientTransform="matrix(2.5384614,0,0,2.3888889,16.730769,-0.2777779)"
       x1="22.312057"
       y1="12.263187"
       x2="7.8301668"
       y2="4.6025558" />
    <linearGradient
       inkscape:collect="always"
       xlink:href="#linearGradient3145"
       id="linearGradient10104"
       gradientUnits="userSpaceOnUse"
       gradientTransform="matrix(2.5384614,0,0,2.3888889,16.730769,-0.2777779)"
       x1="22.312057"
       y1="12.263187"
       x2="7.8301668"
       y2="4.6025558" />
    <linearGradient
       inkscape:collect="always"
       xlink:href="#linearGradient3145"
       id="linearGradient10110"
       gradientUnits="userSpaceOnUse"
       gradientTransform="matrix(2.5384614,0,0,2.3888889,16.730769,-0.2777779)"
       x1="19.206472"
       y1="16.454321"
       x2="7.8301668"
       y2="4.6025558" />
    <linearGradient
       inkscape:collect="always"
       xlink:href="#linearGradient12527"
       id="linearGradient12533"
       x1="30.650145"
       y1="2.6105204"
       x2="30.650145"
       y2="-0.04189587"
       gradientUnits="userSpaceOnUse" />
    <linearGradient
       inkscape:collect="always"
       xlink:href="#linearGradient12527"
       id="linearGradient12539"
       gradientUnits="userSpaceOnUse"
       x1="30.650145"
       y1="2.6105204"
       x2="30.650145"
       y2="-0.04189587" />
    <linearGradient
       inkscape:collect="always"
       xlink:href="#linearGradient3145"
       id="linearGradient2325"
       gradientUnits="userSpaceOnUse"
       gradientTransform="matrix(2.5384614,0,0,2.3888889,16.730769,-0.2777779)"
       x1="19.206472"
       y1="16.454321"
       x2="7.8301668"
       y2="4.6025558" />
    <linearGradient
       inkscape:collect="always"
       xlink:href="#linearGradient12527"
       id="linearGradient2327"
       gradientUnits="userSpaceOnUse"
       x1="30.650145"
       y1="2.6105204"
       x2="30.650145"
       y2="-0.04189587" />
  </defs>
  <sodipodi:namedview
     id="base"
     pagecolor="#ffffff"
     bordercolor="#666666"
     borderopacity="1.0"
     gridtolerance="10000"
     guidetolerance="10"
     objecttolerance="10"
     inkscape:pageopacity="0.0"
     inkscape:pageshadow="2"
     inkscape:zoom="5.034871"
     inkscape:cx="42.408371"
     inkscape:cy="14.783954"
     inkscape:document-units="px"
     inkscape:current-layer="layer1"
     width="48px"
     height="48px"
     showgrid="false"
     gridempspacing="4"
     showborder="true"
     inkscape:window-width="1680"
     inkscape:window-height="946"
     inkscape:window-x="0"
     inkscape:window-y="0"
     showguides="true"
     inkscape:guide-bbox="true" />
  <metadata
     id="metadata7">
    <rdf:RDF>
      <cc:Work
         rdf:about="">
        <dc:format>image/svg+xml</dc:format>
        <dc:type
           rdf:resource="http://purl.org/dc/dcmitype/StillImage" />
      </cc:Work>
    </rdf:RDF>
  </metadata>
  <g
     inkscape:label="Layer 1"
     inkscape:groupmode="layer"
     id="layer1">
    <g
       id="g2308"
       transform="translate(-3.9635901,0)">
      <g
         transform="matrix(1.0251644,0,0,0.9545455,-3.2579326,2.1818182)"
         id="g10106">
        <rect
           style="opacity:1;fill:#ffffff;fill-opacity:1;stroke:#7c7c7c;stroke-width:1.05925167;stroke-linecap:round;stroke-linejoin:round;stroke-miterlimit:4;stroke-dasharray:none;stroke-opacity:1"
           id="rect2170"
           width="38.03183"
           height="44.400471"
           x="11.439224"
           y="3.0692067"
           rx="2.1049151"
           ry="2.1283536" />
        <path
           sodipodi:type="inkscape:offset"
           inkscape:radius="-1.3363953"
           inkscape:original="M 34.5 4.5 L 34.5 47.5 L 67.5 47.5 L 67.5 4.5 L 34.5 4.5 z "
           style="opacity:1;fill:url(#linearGradient2325);fill-opacity:1;stroke:none;stroke-width:1;stroke-linecap:round;stroke-linejoin:round;stroke-miterlimit:4;stroke-dasharray:none;stroke-opacity:1"
           id="path10102"
           d="M 35.84375,5.84375 L 35.84375,46.15625 L 66.15625,46.15625 L 66.15625,5.84375 L 35.84375,5.84375 z "
           transform="matrix(1.058149,0,0,0.9975366,-22.002838,1.4395725e-2)" />
        <g
           transform="matrix(1.0870138,0,0,0.6490995,-4.3293042,1.5160058)"
           id="g12535">
          <path
             style="opacity:1;fill:#ffffff;fill-opacity:1;stroke:#7c7c7c;stroke-width:1.24452782;stroke-linecap:round;stroke-linejoin:round;stroke-miterlimit:4;stroke-dasharray:none;stroke-opacity:1"
             d="M 17.168396,-0.79306334 C 28.835063,-0.79306334 35.305379,-0.79306334 46.972046,-0.79306334 C 48.040831,1.5646189 48.549356,2.3959094 49.5,4.4691181 C 37.833333,4.4691181 26.166667,4.4691181 14.5,4.4691181 C 15.594843,2.4824926 16.033623,1.2660153 17.168396,-0.79306334 z "
             id="rect12520"
             sodipodi:nodetypes="ccccc" />
          <path
             sodipodi:type="inkscape:offset"
             inkscape:radius="-1.1770366"
             inkscape:original="M 17.15625 -0.78125 C 16.021477 1.2778286 15.594843 2.4821245 14.5 4.46875 C 26.166667 4.46875 37.833333 4.46875 49.5 4.46875 C 48.549356 2.3955413 48.037535 1.5764322 46.96875 -0.78125 C 35.302083 -0.78125 28.822917 -0.78125 17.15625 -0.78125 z "
             style="opacity:1;fill:url(#linearGradient2327);fill-opacity:1;stroke:none;stroke-width:0.99999976;stroke-linecap:round;stroke-linejoin:round;stroke-miterlimit:4;stroke-dasharray:none;stroke-opacity:1"
             id="path12525"
             d="M 17.875,0.40625 C 17.34811,1.411712 16.852806,2.3661859 16.40625,3.28125 C 26.8125,3.28125 37.21875,3.28125 47.625,3.28125 C 47.205833,2.4365177 46.770461,1.5152767 46.25,0.40625 C 35.378207,0.40625 28.746793,0.40625 17.875,0.40625 z " />
        </g>
      </g>
      <text
         sodipodi:linespacing="125%"
         id="text12498"
         y="42.637398"
         x="10.476932"
         style="font-size:14px;font-style:normal;font-weight:normal;line-height:125%;fill:#358d00;fill-opacity:1;stroke:none;stroke-width:1px;stroke-linecap:butt;stroke-linejoin:miter;stroke-opacity:1;font-family:Bitstream Vera Sans"
         xml:space="preserve"><tspan
           style="font-size:3px;font-style:normal;font-variant:normal;font-weight:bold;font-stretch:normal;text-align:start;line-height:125%;writing-mode:lr-tb;text-anchor:start;fill:#358d00;fill-opacity:1;font-family:Lucida Grande"
           y="42.637398"
           x="10.476932"
           id="tspan12500"
           sodipodi:role="line">EYEOS - WEB DESKTOP</tspan></text>
      <g
         transform="translate(0,1.996382)"
         id="g12486">
        <path
           style="opacity:1;fill:#bdf79a;fill-opacity:1;stroke:#3b890b;stroke-width:1;stroke-linejoin:miter;stroke-opacity:1;overflow:visible"
           d="M 21.938488,5.4989688 C 21.867256,6.2624942 21.845,7.0434607 21.845,7.8362092 C 21.845,14.17979 24.125611,19.58973 28.669842,24.041075 C 33.214072,28.492415 38.629539,30.710001 44.968434,30.71 C 45.482632,30.71 45.992851,30.676876 46.495455,30.647674 L 46.495455,21.485692 C 45.99887,21.535646 45.485703,21.579182 44.968434,21.579182 C 41.195054,21.579182 38.011724,20.252878 35.401191,17.559129 C 32.789466,14.864581 31.474572,11.620288 31.474568,7.8362092 C 31.474568,7.0339793 31.543383,6.2550292 31.66155,5.4989688 L 21.938488,5.4989688 z M 38.455228,5.4989688 C 38.16425,6.2749195 37.987775,7.1145965 37.987775,7.992025 C 37.987775,11.915448 41.169613,15.097235 45.093088,15.097235 C 45.573177,15.097235 46.042047,15.032228 46.495455,14.941419 L 46.495455,5.4989688 L 38.455228,5.4989688 z "
           id="path12432" />
        <path
           sodipodi:type="inkscape:offset"
           inkscape:radius="-1.5632316"
           inkscape:original="M 21.9375 5.4375 C 21.866268 6.2010254 21.84375 6.9572515 21.84375 7.75 C 21.843749 14.093581 24.112019 19.517405 28.65625 23.96875 C 33.200481 28.42009 38.629855 30.625001 44.96875 30.625 C 45.482947 30.625001 45.997396 30.591702 46.5 30.5625 L 46.5 21.40625 C 46.003416 21.456205 45.486019 21.5 44.96875 21.5 C 41.195369 21.5 38.016783 20.162499 35.40625 17.46875 C 32.794527 14.774201 31.468754 11.534079 31.46875 7.75 C 31.468749 6.9477703 31.538083 6.1935604 31.65625 5.4375 L 21.9375 5.4375 z M 38.4375 5.4375 C 38.146522 6.2134507 37.96875 7.0288215 37.96875 7.90625 C 37.96875 11.829673 41.170275 15.03125 45.09375 15.03125 C 45.573839 15.03125 46.046592 14.965809 46.5 14.875 L 46.5 5.4375 L 38.4375 5.4375 z "
           style="opacity:1;fill:#5bd312;fill-opacity:1;stroke:none;stroke-width:1;stroke-linejoin:miter;stroke-opacity:1;overflow:visible"
           id="path12465"
           d="M 23.4375,7 C 23.431318,7.2535927 23.40625,7.4845787 23.40625,7.75 C 23.406249,13.720938 25.473471,18.654635 29.75,22.84375 C 34.026165,27.032504 38.975609,29.055221 44.9375,29.0625 L 44.9375,23.0625 C 40.807849,23.054554 37.145727,21.518288 34.28125,18.5625 C 31.417655,15.608091 29.906254,11.899203 29.90625,7.75 C 29.90625,7.4888838 29.956087,7.2531041 29.96875,7 L 23.4375,7 z M 39.71875,7 C 39.661855,7.3026735 39.53125,7.5888825 39.53125,7.90625 C 39.53125,10.923633 41.94146,13.349624 44.9375,13.4375 L 44.9375,7 L 39.71875,7 z "
           transform="translate(8.329e-3,7.6544e-2)" />
        <path
           style="opacity:0.9;fill:none;fill-rule:evenodd;stroke:#ffffff;stroke-width:1px;stroke-linecap:butt;stroke-linejoin:miter;stroke-opacity:1"
           d="M 16.9325,5.498775 L 46.495518,5.498775 L 46.495518,32.463618"
           id="path12467" />
        <path
           style="fill:none;fill-rule:evenodd;stroke:#5bd312;stroke-width:1.06126583px;stroke-linecap:square;stroke-linejoin:miter;stroke-opacity:1"
           d="M 23.967057,6.5740335 L 29.435971,6.5740335"
           id="path12476" />
        <path
           style="fill:none;fill-rule:evenodd;stroke:#5bd312;stroke-width:1.02823019px;stroke-linecap:square;stroke-linejoin:miter;stroke-opacity:1"
           d="M 45.441728,28.616026 L 45.441728,23.653883"
           id="path12482" />
        <path
           style="fill:none;fill-rule:evenodd;stroke:#5bd312;stroke-width:1.09123242;stroke-linecap:square;stroke-linejoin:miter;stroke-miterlimit:4;stroke-dasharray:none;stroke-opacity:1"
           d="M 40.302437,6.5652603 L 45.437333,6.5652603 L 45.437333,12.964134"
           id="path12484"
           sodipodi:nodetypes="ccc" />
      </g>
    </g>
    <g
       style="overflow:visible"
       transform="matrix(0.4266693,0,0,0.4266693,-56.038305,-5.4792466)"
       id="g11083"
       inkscape:export-xdpi="90"
       inkscape:export-ydpi="90">
      <g
         id="g11068"
         transform="matrix(0.5,0,0,0.5,337.67245,45.674398)">
        <path
           style="fill:url(#linearGradient9089)"
           id="path59"
           d="M -350.33334,36 C -384.02234,36 -411.33334,63.311 -411.33334,97 C -411.33334,130.689 -384.02234,158 -350.33334,158 C -316.64434,158 -289.33334,130.689 -289.33334,97 C -289.33334,63.311 -316.64434,36 -350.33334,36 z M -350.33334,119 C -362.48334,119 -372.33334,109.15 -372.33334,97 C -372.33334,84.849 -362.48334,75 -350.33334,75 C -338.18434,75 -328.33334,84.849 -328.33334,97 C -328.33334,109.15 -338.18434,119 -350.33334,119 z " />
        <path
           style="opacity:1;fill:url(#linearGradient9091);fill-opacity:1;stroke:url(#radialGradient10096);stroke-width:4.31568575;stroke-miterlimit:4;stroke-dasharray:none;stroke-opacity:1"
           id="path102"
           d="M -410.33334,97 C -410.33334,130.084 -383.41734,157 -350.33334,157 C -317.24934,157 -290.33334,130.084 -290.33334,97 C -290.33334,63.916 -317.24934,37 -350.33334,37 C -383.41734,37 -410.33334,63.916 -410.33334,97 z M -373.33334,97 C -373.33334,84.318 -363.01534,74 -350.33334,74 C -337.65034,74 -327.33334,84.318 -327.33334,97 C -327.33334,109.683 -337.65034,120 -350.33334,120 C -363.01534,120 -373.33334,109.683 -373.33334,97 z " />
        <path
           style="opacity:0.4;fill:#00348a;fill-opacity:1"
           id="path182"
           d="M -350.33334,69 C -365.77234,69 -378.33334,81.561 -378.33334,97 C -378.33334,112.44 -365.77234,125 -350.33334,125 C -334.89334,125 -322.33334,112.44 -322.33334,97 C -322.33334,81.561 -334.89334,69 -350.33334,69 z M -350.33334,120 C -363.01534,120 -373.33334,109.683 -373.33334,97 C -373.33334,84.318 -363.01534,74 -350.33334,74 C -337.65034,74 -327.33334,84.318 -327.33334,97 C -327.33334,109.683 -337.65034,120 -350.33334,120 z " />
        <path
           style="opacity:0.25;fill:url(#XMLID_7_)"
           id="path131"
           d="M -350.33334,74 C -363.03634,74 -373.33334,84.297 -373.33334,97 C -373.33334,109.703 -363.03634,120 -350.33334,120 C -337.63134,120 -327.33334,109.703 -327.33334,97 C -327.33334,84.297 -337.63134,74 -350.33334,74 z M -350.33334,107 C -355.85634,107 -360.33334,102.522 -360.33334,97 C -360.33334,91.477 -355.85634,87 -350.33334,87 C -344.81134,87 -340.33334,91.477 -340.33334,97 C -340.33334,102.522 -344.81134,107 -350.33334,107 z " />
        <path
           style="opacity:0.5;fill:url(#radialGradient9093)"
           id="path11064"
           d="M -350.33334,74 C -363.03634,74 -373.33334,84.297 -373.33334,97 C -373.33334,109.703 -363.03634,120 -350.33334,120 C -337.63134,120 -327.33334,109.703 -327.33334,97 C -327.33334,84.297 -337.63134,74 -350.33334,74 z M -350.33334,107 C -355.85634,107 -360.33334,102.522 -360.33334,97 C -360.33334,91.477 -355.85634,87 -350.33334,87 C -344.81134,87 -340.33334,91.477 -340.33334,97 C -340.33334,102.522 -344.81134,107 -350.33334,107 z " />
        <path
           sodipodi:type="inkscape:offset"
           inkscape:radius="-1.5348442"
           inkscape:original="M -137 40 C -150.34173 39.94238 -163.62619 44.818348 -173.78125 53.46875 C -184.48948 62.464486 -191.69876 75.496283 -193.5 89.375 C -195.31022 102.61978 -192.26539 116.48715 -185 127.71875 C -177.15632 140.03526 -164.44652 149.14106 -150.21875 152.46875 C -136.37602 155.79219 -121.30125 153.70459 -108.9375 146.625 C -96.029577 139.35746 -86.159061 126.86404 -82.15625 112.59375 C -78.098363 98.44835 -79.790115 82.753677 -86.875 69.84375 C -93.904574 56.811713 -106.22029 46.735802 -120.40625 42.46875 C -125.77963 40.830326 -131.38309 39.997684 -137 40 z "
           style="opacity:0.6;fill:none;fill-opacity:1;stroke:#ffffff;stroke-width:3.35664463;stroke-miterlimit:4;stroke-dasharray:none;stroke-opacity:1"
           id="path10072"
           d="M -137,41.53125 C -149.96338,41.475264 -162.91246,46.218449 -172.78125,54.625 C -172.78114,54.635416 -172.78114,54.645834 -172.78125,54.65625 C -183.19028,63.400635 -190.219,76.080536 -191.96875,89.5625 C -191.96864,89.572916 -191.96864,89.583334 -191.96875,89.59375 C -193.72824,102.46733 -190.77743,115.96295 -183.71875,126.875 C -183.71864,126.88542 -183.71864,126.89583 -183.71875,126.90625 C -176.09449,138.87822 -163.69555,147.7363 -149.875,150.96875 C -136.4201,154.19908 -121.69729,152.15816 -109.6875,145.28125 C -97.143365,138.21853 -87.513521,126.05034 -83.625,112.1875 C -83.625106,112.17708 -83.625106,112.16667 -83.625,112.15625 C -79.68127,98.408789 -81.336702,83.134071 -88.21875,70.59375 C -88.218856,70.583334 -88.218856,70.572916 -88.21875,70.5625 C -95.04965,57.898782 -107.06137,48.083159 -120.84375,43.9375 C -126.07115,42.343587 -131.53519,41.528997 -137,41.53125 z "
           transform="translate(-213.33334,0)" />
        <path
           d="M -137.125,67.59375 C -143.6655,67.565503 -150.86591,70.201852 -155.875,74.46875 C -155.92693,74.510605 -155.97902,74.552272 -156.03125,74.59375 C -161.361,79.071148 -165.2494,86.190891 -166.125,92.9375 C -166.1352,93.000036 -166.14562,93.062536 -166.15625,93.125 C -167.05447,99.696974 -165.39329,107.2315 -161.84375,112.71875 C -161.80183,112.78108 -161.76016,112.84358 -161.71875,112.90625 C -157.81935,119.02927 -150.8451,123.97815 -143.9375,125.59375 C -143.88539,125.60402 -143.8333,125.61443 -143.78125,125.625 C -136.91018,127.27464 -128.65721,126.1237 -122.65625,122.6875 C -122.59387,122.65601 -122.53137,122.62476 -122.46875,122.59375 C -116.10034,119.00815 -110.66706,112.10212 -108.71875,105.15625 C -108.70848,105.10414 -108.69807,105.05205 -108.6875,105 C -106.68171,98.008022 -107.62386,89.390825 -111.0625,83.125 C -111.09399,83.062619 -111.12524,83.000118 -111.15625,82.9375 C -114.61443,76.526428 -121.41255,70.959864 -128.34375,68.875 C -128.38542,68.875094 -128.42708,68.875094 -128.46875,68.875 C -131.21802,68.036705 -134.11732,67.592561 -137,67.59375 C -137.04167,67.593844 -137.08333,67.593844 -137.125,67.59375 z "
           id="path10074"
           style="opacity:0.6;fill:none;fill-opacity:1;stroke:#ffffff;stroke-width:2.39760327;stroke-miterlimit:4;stroke-dasharray:none;stroke-opacity:1"
           inkscape:original="M -137 40 C -150.34173 39.94238 -163.62619 44.818348 -173.78125 53.46875 C -184.48948 62.464486 -191.69876 75.496283 -193.5 89.375 C -195.31022 102.61978 -192.26539 116.48715 -185 127.71875 C -177.15632 140.03526 -164.44652 149.14106 -150.21875 152.46875 C -136.37602 155.79219 -121.30125 153.70459 -108.9375 146.625 C -96.029577 139.35746 -86.159061 126.86404 -82.15625 112.59375 C -78.098363 98.44835 -79.790115 82.753677 -86.875 69.84375 C -93.904574 56.811713 -106.22029 46.735802 -120.40625 42.46875 C -125.77963 40.830326 -131.38309 39.997684 -137 40 z "
           inkscape:radius="-27.590631"
           sodipodi:type="inkscape:offset"
           transform="translate(-213.33334,0)" />
      </g>
    </g>
  </g>
</svg>
