<?xml version="1.0" encoding="UTF-8" standalone="no"?>
<!-- Created with Inkscape (http://www.inkscape.org/) -->
<svg
   xmlns:dc="http://purl.org/dc/elements/1.1/"
   xmlns:cc="http://web.resource.org/cc/"
   xmlns:rdf="http://www.w3.org/1999/02/22-rdf-syntax-ns#"
   xmlns:svg="http://www.w3.org/2000/svg"
   xmlns="http://www.w3.org/2000/svg"
   xmlns:xlink="http://www.w3.org/1999/xlink"
   xmlns:sodipodi="http://sodipodi.sourceforge.net/DTD/sodipodi-0.dtd"
   xmlns:inkscape="http://www.inkscape.org/namespaces/inkscape"
   id="svg2"
   sodipodi:version="0.32"
   inkscape:version="0.45.1"
   width="48"
   height="48"
   version="1.0"
   inkscape:export-filename="/Users/Marc/Desktop/exec2.png"
   inkscape:export-xdpi="90"
   inkscape:export-ydpi="90"
   sodipodi:docbase="/Users/Marc/Desktop/eyeOS/v 1.2/Icones/FINAL/48x48/Apps"
   sodipodi:docname="exec.svg"
   inkscape:output_extension="org.inkscape.output.svg.inkscape">
  <metadata
     id="metadata7">
    <rdf:RDF>
      <cc:Work
         rdf:about="">
        <dc:format>image/svg+xml</dc:format>
        <dc:type
           rdf:resource="http://purl.org/dc/dcmitype/StillImage" />
      </cc:Work>
    </rdf:RDF>
  </metadata>
  <defs
     id="defs5">
    <linearGradient
       id="linearGradient3292">
      <stop
         style="stop-color:#000000;stop-opacity:1;"
         offset="0"
         id="stop3294" />
      <stop
         id="stop3304"
         offset="0.5"
         style="stop-color:#ffffff;stop-opacity:1;" />
      <stop
         style="stop-color:#ffffff;stop-opacity:1;"
         offset="1"
         id="stop3296" />
    </linearGradient>
    <linearGradient
       inkscape:collect="always"
       id="linearGradient5968">
      <stop
         style="stop-color:#000000;stop-opacity:1;"
         offset="0"
         id="stop5970" />
      <stop
         style="stop-color:#000000;stop-opacity:0;"
         offset="1"
         id="stop5972" />
    </linearGradient>
    <linearGradient
       inkscape:collect="always"
       id="linearGradient5880">
      <stop
         style="stop-color:#ffffff;stop-opacity:1;"
         offset="0"
         id="stop5882" />
      <stop
         style="stop-color:#ffffff;stop-opacity:0;"
         offset="1"
         id="stop5884" />
    </linearGradient>
    <linearGradient
       id="linearGradient5515">
      <stop
         style="stop-color:#ffffff;stop-opacity:0;"
         offset="0"
         id="stop5517" />
      <stop
         id="stop5523"
         offset="0.32512316"
         style="stop-color:#ffffff;stop-opacity:1;" />
      <stop
         style="stop-color:#ffffff;stop-opacity:0;"
         offset="1"
         id="stop5519" />
    </linearGradient>
    <linearGradient
       id="linearGradient5267">
      <stop
         style="stop-color:#ffffff;stop-opacity:1;"
         offset="0"
         id="stop5269" />
      <stop
         id="stop5275"
         offset="0.5"
         style="stop-color:#ffffff;stop-opacity:0.50359714;" />
      <stop
         style="stop-color:#ffffff;stop-opacity:1;"
         offset="1"
         id="stop5271" />
    </linearGradient>
    <linearGradient
       id="linearGradient5247">
      <stop
         style="stop-color:#ffffff;stop-opacity:1;"
         offset="0"
         id="stop5249" />
      <stop
         id="stop5255"
         offset="0.5"
         style="stop-color:#ffffff;stop-opacity:0.79136693;" />
      <stop
         style="stop-color:#ffffff;stop-opacity:0;"
         offset="1"
         id="stop5251" />
    </linearGradient>
    <linearGradient
       inkscape:collect="always"
       id="linearGradient5213">
      <stop
         style="stop-color:#ffffff;stop-opacity:1;"
         offset="0"
         id="stop5215" />
      <stop
         style="stop-color:#ffffff;stop-opacity:0;"
         offset="1"
         id="stop5217" />
    </linearGradient>
    <linearGradient
       inkscape:collect="always"
       id="linearGradient5131">
      <stop
         style="stop-color:#767676;stop-opacity:1;"
         offset="0"
         id="stop5133" />
      <stop
         style="stop-color:#767676;stop-opacity:0;"
         offset="1"
         id="stop5135" />
    </linearGradient>
    <linearGradient
       inkscape:collect="always"
       id="linearGradient4993">
      <stop
         style="stop-color:#ffffff;stop-opacity:1;"
         offset="0"
         id="stop4995" />
      <stop
         style="stop-color:#ffffff;stop-opacity:0;"
         offset="1"
         id="stop4997" />
    </linearGradient>
    <linearGradient
       inkscape:collect="always"
       id="linearGradient4913">
      <stop
         style="stop-color:#ffffff;stop-opacity:1;"
         offset="0"
         id="stop4915" />
      <stop
         style="stop-color:#ffffff;stop-opacity:0;"
         offset="1"
         id="stop4917" />
    </linearGradient>
    <linearGradient
       id="linearGradient4893">
      <stop
         style="stop-color:#000000;stop-opacity:0;"
         offset="0"
         id="stop4895" />
      <stop
         id="stop4909"
         offset="0.61052197"
         style="stop-color:#000000;stop-opacity:0;" />
      <stop
         id="stop4905"
         offset="0.68472904"
         style="stop-color:#000000;stop-opacity:0.37769786;" />
      <stop
         style="stop-color:#000000;stop-opacity:0;"
         offset="0.7499575"
         id="stop4907" />
      <stop
         style="stop-color:#000000;stop-opacity:0;"
         offset="1"
         id="stop4897" />
    </linearGradient>
    <linearGradient
       inkscape:collect="always"
       id="linearGradient3285">
      <stop
         style="stop-color:#474747;stop-opacity:1;"
         offset="0"
         id="stop3287" />
      <stop
         style="stop-color:#474747;stop-opacity:0;"
         offset="1"
         id="stop3289" />
    </linearGradient>
    <linearGradient
       id="linearGradient3184">
      <stop
         style="stop-color:#fcfcfc;stop-opacity:1;"
         offset="0"
         id="stop3186" />
      <stop
         style="stop-color:#c0c0c0;stop-opacity:1;"
         offset="1"
         id="stop3188" />
    </linearGradient>
    <linearGradient
       id="linearGradient3152">
      <stop
         style="stop-color:#a2a2a2;stop-opacity:1;"
         offset="0"
         id="stop3154" />
      <stop
         id="stop3166"
         offset="0.27766603"
         style="stop-color:#b7b7b7;stop-opacity:1;" />
      <stop
         id="stop3160"
         offset="0.34831479"
         style="stop-color:#f2f2f2;stop-opacity:1;" />
      <stop
         style="stop-color:#858585;stop-opacity:1;"
         offset="0.69134921"
         id="stop3162" />
      <stop
         id="stop3164"
         offset="0.76705599"
         style="stop-color:#8f8f8f;stop-opacity:1;" />
      <stop
         style="stop-color:#a4a4a4;stop-opacity:1;"
         offset="0.84946543"
         id="stop3182" />
      <stop
         style="stop-color:#757575;stop-opacity:1;"
         offset="0.88352799"
         id="stop3178" />
      <stop
         id="stop3180"
         offset="0.912646"
         style="stop-color:#989898;stop-opacity:1;" />
      <stop
         style="stop-color:#acacac;stop-opacity:1;"
         offset="1"
         id="stop3156" />
    </linearGradient>
    <linearGradient
       id="linearGradient10207">
      <stop
         id="stop10209"
         offset="0"
         style="stop-color:#b4b4b4;stop-opacity:1;" />
      <stop
         style="stop-color:#d1d1d1;stop-opacity:1;"
         offset="0.5"
         id="stop4937" />
      <stop
         id="stop10211"
         offset="1"
         style="stop-color:#fafafa;stop-opacity:1;" />
    </linearGradient>
    <linearGradient
       id="linearGradient3752">
      <stop
         id="stop3754"
         offset="0"
         style="stop-color:#000000;stop-opacity:1;" />
      <stop
         id="stop3756"
         offset="1"
         style="stop-color:#000000;stop-opacity:0;" />
    </linearGradient>
    <radialGradient
       inkscape:collect="always"
       xlink:href="#linearGradient4893"
       id="radialGradient4903"
       cx="-1.2494017"
       cy="23.725372"
       fx="-1.2494017"
       fy="61.40414"
       r="60"
       gradientUnits="userSpaceOnUse"
       gradientTransform="matrix(1.3581356,1.5026073,-1.6333333,1.4762927,-61.051702,-44.648234)" />
    <radialGradient
       inkscape:collect="always"
       xlink:href="#linearGradient4913"
       id="radialGradient4925"
       gradientUnits="userSpaceOnUse"
       cx="-84"
       cy="64"
       fx="-84"
       fy="64"
       r="60" />
    <mask
       maskUnits="userSpaceOnUse"
       id="mask4921">
      <path
         style="opacity:1;fill:url(#radialGradient4925);fill-opacity:1;stroke:none;stroke-width:3;stroke-linecap:round;stroke-linejoin:round;stroke-miterlimit:4;stroke-dasharray:none;stroke-dashoffset:1.08779998;stroke-opacity:1"
         d="M -83.999999,4 C -87.273852,4.0172764 -89.375767,4.1739184 -92.624999,4.625 C -93.586949,4.778184 -94.374999,5.4055494 -94.374999,6.375 L -94.968749,15.8125 C -95.057257,16.767694 -95.725392,17.39683 -96.437499,17.625 C -96.45933,17.631995 -96.478095,17.650033 -96.499999,17.65625 C -100.61684,18.761419 -104.52293,20.378352 -108.125,22.46875 C -108.77655,22.750681 -109.61713,22.733687 -110.3125,22.15625 L -117.40625,15.90625 C -118.09175,15.220752 -119.08648,15.33437 -119.875,15.90625 C -122.49151,17.884842 -124.11032,19.259755 -126.4375,21.5625 C -128.74024,23.889683 -130.11516,25.508484 -132.09375,28.125 C -132.66563,28.913521 -132.77925,29.908252 -132.09375,30.59375 L -125.84375,37.6875 C -125.37003,38.257979 -125.10755,38.996346 -125.375,39.53125 L -125.4375,39.65625 C -127.68302,43.45585 -129.43236,47.592563 -130.5625,51.96875 C -130.57434,51.989388 -130.58117,52.010911 -130.59375,52.03125 C -130.91096,52.544091 -131.44914,52.962834 -132.1875,53.03125 L -141.625,53.625 C -142.59444,53.625 -143.22181,54.41305 -143.375,55.375 C -143.82608,58.624232 -143.98272,60.726147 -144,64 C -143.98272,67.273853 -143.82608,69.375768 -143.375,72.625 C -143.22181,73.586946 -142.59444,74.375 -141.625,74.375 L -132.1875,74.96875 C -131.32015,75.04912 -130.74406,75.615317 -130.46875,76.25 C -129.36552,80.393354 -127.7025,84.314208 -125.59375,87.9375 C -125.22083,88.606007 -125.21212,89.551864 -125.84375,90.3125 L -132.09375,97.40625 C -132.77925,98.091746 -132.66563,99.086477 -132.09375,99.875 C -130.11516,102.49151 -128.74024,104.11031 -126.4375,106.4375 C -124.11032,108.74024 -122.49152,110.11516 -119.875,112.09375 C -119.08648,112.66563 -118.09175,112.77925 -117.40625,112.09375 L -110.3125,105.84375 C -109.55186,105.21212 -108.60601,105.22083 -107.9375,105.59375 L -107.84375,105.5 C -104.31609,107.51717 -100.51556,109.10952 -96.499999,110.1875 L -96.499999,110.34375 C -95.763598,110.55276 -95.05997,111.20302 -94.968749,112.1875 L -94.374999,121.625 C -94.374999,122.59444 -93.586949,123.22181 -92.624999,123.375 C -89.375767,123.82608 -87.273852,123.98272 -83.999999,124 C -80.726146,123.98272 -78.624231,123.82608 -75.374999,123.375 C -74.413053,123.22181 -73.624999,122.59444 -73.624999,121.625 L -73.031249,112.1875 C -72.940025,111.20302 -72.2364,110.55276 -71.499999,110.34375 L -71.499999,110.1875 C -67.484442,109.10952 -63.683904,107.51717 -60.156249,105.5 L -60.062499,105.59375 C -59.393992,105.22083 -58.448137,105.21212 -57.687499,105.84375 L -50.593749,112.09375 C -49.908246,112.77926 -48.913512,112.66564 -48.124999,112.09375 C -45.508489,110.11516 -43.889689,108.74024 -41.562499,106.4375 C -39.259759,104.11031 -37.884839,102.49151 -35.906249,99.875 C -35.334359,99.086487 -35.220739,98.091755 -35.906249,97.40625 L -42.156249,90.3125 C -42.787879,89.55186 -42.779169,88.606007 -42.406249,87.9375 C -40.297499,84.314208 -38.634479,80.393354 -37.531249,76.25 C -37.255939,75.615317 -36.679849,75.04912 -35.812499,74.96875 L -26.374999,74.375 C -25.405549,74.375 -24.778179,73.586946 -24.624999,72.625 C -24.173919,69.375768 -24.017279,67.273853 -23.999999,64 C -24.017279,60.726147 -24.173919,58.624232 -24.624999,55.375 C -24.778179,54.41305 -25.405549,53.625 -26.374999,53.625 L -35.812499,53.03125 C -36.550859,52.962834 -37.089039,52.544091 -37.406249,52.03125 C -37.411879,52.009328 -37.431839,51.99066 -37.437499,51.96875 C -38.567639,47.592563 -40.588709,43.603839 -42.562499,39.65625 L -42.624999,39.53125 C -42.892449,38.996346 -42.629969,38.257977 -42.156249,37.6875 L -35.906249,30.59375 C -35.220739,29.908244 -35.334369,28.913516 -35.906249,28.125 C -37.884839,25.508484 -39.259759,23.88968 -41.562499,21.5625 C -43.889679,19.259753 -45.508479,17.884841 -48.124999,15.90625 C -48.913515,15.334366 -49.908243,15.220745 -50.593749,15.90625 L -57.687499,22.15625 C -58.382875,22.733685 -59.223454,22.750682 -59.874999,22.46875 C -63.477074,20.378352 -67.383162,18.761419 -71.499999,17.65625 C -71.521903,17.650033 -71.540668,17.631995 -71.562499,17.625 C -72.274606,17.39683 -72.942738,16.767694 -73.031249,15.8125 L -73.624999,6.375 C -73.624999,5.4055494 -74.413053,4.778184 -75.374999,4.625 C -78.624231,4.1739184 -80.726146,4.0172764 -83.999999,4 z M -83.999999,48 C -75.168,47.999999 -67.999999,55.168 -67.999999,64 C -68,72.832 -75.168,80 -83.999999,80 C -92.831999,80 -99.999999,72.832 -99.999999,64 C -99.999998,55.167999 -92.831998,48 -83.999999,48 z "
         id="path4923"
         sodipodi:nodetypes="ccccssccccccccsccscccccccccccccccccccccccccccccccccccccccccccccccssssccccccccsscccccsssc" />
    </mask>
    <radialGradient
       inkscape:collect="always"
       xlink:href="#linearGradient4993"
       id="radialGradient5008"
       gradientUnits="userSpaceOnUse"
       gradientTransform="matrix(1,0,0,0.5780636,0,-101.84696)"
       cx="94.818924"
       cy="67.895119"
       fx="94.818924"
       fy="67.895119"
       r="43.734375" />
    <filter
       inkscape:collect="always"
       id="filter5054">
      <feGaussianBlur
         inkscape:collect="always"
         stdDeviation="1.2828183"
         id="feGaussianBlur5056" />
    </filter>
    <clipPath
       clipPathUnits="userSpaceOnUse"
       id="clipPath5073">
      <path
         id="path5075"
         d="M 76.90625,-70.062499 C 73.993994,-66.090403 69.299199,-63.499999 64,-63.499999 C 59.104212,-63.499999 54.716932,-65.68865 51.78125,-69.156249 C 28.641624,-73.441819 25.163605,-55.116541 20.28125,-38.406249 C 20.690082,-37.972249 21.088367,-37.541669 21.5625,-37.062499 C 23.88968,-34.759759 25.50848,-33.384839 28.125,-31.406249 C 28.91352,-30.834369 29.90825,-30.720749 30.59375,-31.406249 L 37.6875,-37.656249 C 38.44814,-38.287879 39.39399,-38.279169 40.0625,-37.906249 L 40.15625,-37.999999 C 43.68391,-35.982829 47.484439,-34.390479 51.5,-33.312499 L 51.5,-33.156249 C 52.236402,-32.947239 52.940029,-32.296979 53.03125,-31.312499 L 53.625,-21.874999 C 53.625001,-20.905559 54.41305,-20.278189 55.375,-20.124999 C 58.624233,-19.673919 60.726147,-19.517279 64,-19.499999 C 67.273854,-19.517279 69.375768,-19.673919 72.625,-20.124999 C 73.586947,-20.278189 74.375,-20.905559 74.375,-21.874999 L 74.96875,-31.312499 C 75.059975,-32.296979 75.763599,-32.947239 76.5,-33.156249 L 76.5,-33.312499 C 80.515558,-34.390479 84.316095,-35.982829 87.84375,-37.999999 L 87.9375,-37.906249 C 88.606008,-38.279169 89.551862,-38.287879 90.3125,-37.656249 L 97.40625,-31.406249 C 98.091754,-30.720739 99.086487,-30.834359 99.875,-31.406249 C 102.49151,-33.384839 104.11031,-34.759759 106.4375,-37.062499 C 106.92292,-37.553069 107.3327,-37.993909 107.75,-38.437499 C 111.67353,-45.524173 82.140773,-81.872038 76.90625,-70.062499 z "
         clip-path="none"
         mask="none"
         style="opacity:0.43122678;fill:url(#radialGradient5077);fill-opacity:1;stroke:none;stroke-width:3;stroke-linecap:round;stroke-linejoin:round;stroke-miterlimit:4;stroke-dasharray:none;stroke-dashoffset:1.08779998;stroke-opacity:1"
         sodipodi:nodetypes="csccccccccccccccccccccccccccc" />
    </clipPath>
    <radialGradient
       inkscape:collect="always"
       xlink:href="#linearGradient4993"
       id="radialGradient5077"
       gradientUnits="userSpaceOnUse"
       gradientTransform="matrix(1,0,0,0.5780636,0,-101.84696)"
       cx="94.818924"
       cy="67.895119"
       fx="94.818924"
       fy="67.895119"
       r="43.734375" />
    <radialGradient
       inkscape:collect="always"
       xlink:href="#linearGradient4993"
       id="radialGradient5081"
       gradientUnits="userSpaceOnUse"
       gradientTransform="matrix(1,0,0,0.5780636,0,-101.84696)"
       cx="94.818924"
       cy="67.895119"
       fx="94.818924"
       fy="67.895119"
       r="43.734375" />
    <radialGradient
       inkscape:collect="always"
       xlink:href="#linearGradient4893"
       id="radialGradient5177"
       gradientUnits="userSpaceOnUse"
       gradientTransform="matrix(1.3581356,1.5026073,-1.6333333,1.4762927,-61.051702,-44.648234)"
       cx="-1.2494017"
       cy="23.725372"
       fx="-1.2494017"
       fy="61.40414"
       r="60" />
    <radialGradient
       inkscape:collect="always"
       xlink:href="#linearGradient4993"
       id="radialGradient5179"
       gradientUnits="userSpaceOnUse"
       gradientTransform="matrix(1,0,0,0.5780636,0,-101.84696)"
       cx="94.818924"
       cy="67.895119"
       fx="94.818924"
       fy="67.895119"
       r="43.734375" />
    <radialGradient
       inkscape:collect="always"
       xlink:href="#linearGradient4993"
       id="radialGradient5181"
       gradientUnits="userSpaceOnUse"
       gradientTransform="matrix(1,0,0,0.5780636,0,-101.84696)"
       cx="94.818924"
       cy="67.895119"
       fx="94.818924"
       fy="67.895119"
       r="43.734375" />
    <filter
       inkscape:collect="always"
       id="filter5257">
      <feGaussianBlur
         inkscape:collect="always"
         stdDeviation="0.022901589"
         id="feGaussianBlur5259" />
    </filter>
    <filter
       inkscape:collect="always"
       id="filter5309">
      <feGaussianBlur
         inkscape:collect="always"
         stdDeviation="0.093056358"
         id="feGaussianBlur5311" />
    </filter>
    <filter
       inkscape:collect="always"
       x="-0.11277929"
       width="1.2255586"
       y="-0.066691414"
       height="1.1333828"
       id="filter5505">
      <feGaussianBlur
         inkscape:collect="always"
         stdDeviation="0.13268874"
         id="feGaussianBlur5507" />
    </filter>
    <filter
       inkscape:collect="always"
       id="filter5581">
      <feGaussianBlur
         inkscape:collect="always"
         stdDeviation="0.20386597"
         id="feGaussianBlur5583" />
    </filter>
    <filter
       inkscape:collect="always"
       id="filter5718">
      <feGaussianBlur
         inkscape:collect="always"
         stdDeviation="0.48701799"
         id="feGaussianBlur5720" />
    </filter>
    <filter
       inkscape:collect="always"
       id="filter5836">
      <feGaussianBlur
         inkscape:collect="always"
         stdDeviation="0.12356379"
         id="feGaussianBlur5838" />
    </filter>
    <filter
       inkscape:collect="always"
       id="filter5876">
      <feGaussianBlur
         inkscape:collect="always"
         stdDeviation="0.11909804"
         id="feGaussianBlur5878" />
    </filter>
    <filter
       inkscape:collect="always"
       id="filter5960">
      <feGaussianBlur
         inkscape:collect="always"
         stdDeviation="0.069666275"
         id="feGaussianBlur5962" />
    </filter>
    <linearGradient
       inkscape:collect="always"
       xlink:href="#linearGradient5247"
       id="linearGradient3298"
       x1="310.84995"
       y1="53.393089"
       x2="321.2735"
       y2="308.0267"
       gradientUnits="userSpaceOnUse" />
    <filter
       inkscape:collect="always"
       id="filter3310">
      <feGaussianBlur
         inkscape:collect="always"
         stdDeviation="0.11377897"
         id="feGaussianBlur3312" />
    </filter>
    <linearGradient
       inkscape:collect="always"
       xlink:href="#linearGradient3292"
       id="linearGradient3330"
       gradientUnits="userSpaceOnUse"
       x1="310.84995"
       y1="-27.656115"
       x2="310.84995"
       y2="270.16995"
       gradientTransform="matrix(0.5892134,0,0,0.5892134,-119.15695,-0.1299716)" />
    <radialGradient
       inkscape:collect="always"
       xlink:href="#linearGradient5968"
       id="radialGradient3409"
       gradientUnits="userSpaceOnUse"
       gradientTransform="matrix(1,0,0,0.1111111,0,108.18546)"
       cx="66.917099"
       cy="121.70865"
       fx="66.917099"
       fy="121.70865"
       r="36.032284" />
    <linearGradient
       inkscape:collect="always"
       xlink:href="#linearGradient10207"
       id="linearGradient3411"
       gradientUnits="userSpaceOnUse"
       gradientTransform="translate(1.5708871e-6,0)"
       spreadMethod="reflect"
       x1="64"
       y1="81.5"
       x2="64"
       y2="12.678303" />
    <radialGradient
       inkscape:collect="always"
       xlink:href="#linearGradient4893"
       id="radialGradient3413"
       gradientUnits="userSpaceOnUse"
       gradientTransform="matrix(1.3581356,1.5026073,-1.6333333,1.4762927,-61.051702,-44.648234)"
       cx="-1.2494017"
       cy="23.725372"
       fx="-1.2494017"
       fy="61.40414"
       r="60" />
    <radialGradient
       inkscape:collect="always"
       xlink:href="#linearGradient4993"
       id="radialGradient3415"
       gradientUnits="userSpaceOnUse"
       gradientTransform="matrix(1,0,0,0.5780636,0,-101.84696)"
       cx="94.818924"
       cy="67.895119"
       fx="94.818924"
       fy="67.895119"
       r="43.734375" />
    <radialGradient
       inkscape:collect="always"
       xlink:href="#linearGradient4993"
       id="radialGradient3417"
       gradientUnits="userSpaceOnUse"
       gradientTransform="matrix(1,0,0,0.5780636,0,-101.84696)"
       cx="94.818924"
       cy="67.895119"
       fx="94.818924"
       fy="67.895119"
       r="43.734375" />
    <radialGradient
       inkscape:collect="always"
       xlink:href="#linearGradient4913"
       id="radialGradient3419"
       gradientUnits="userSpaceOnUse"
       gradientTransform="matrix(0.9780499,0,0,0.9780499,146.15619,1.4048094)"
       cx="-84"
       cy="64"
       fx="-84"
       fy="64"
       r="60" />
    <linearGradient
       inkscape:collect="always"
       xlink:href="#linearGradient5131"
       id="linearGradient3421"
       gradientUnits="userSpaceOnUse"
       gradientTransform="translate(-230.03067,39.46691)"
       x1="283.5"
       y1="-52.5"
       x2="282.5"
       y2="128.5" />
    <linearGradient
       inkscape:collect="always"
       xlink:href="#linearGradient5213"
       id="linearGradient3423"
       gradientUnits="userSpaceOnUse"
       gradientTransform="translate(-2.9613216e-2,-0.4585689)"
       x1="62.936993"
       y1="3.8495977"
       x2="63.020756"
       y2="9.8520975" />
    <radialGradient
       inkscape:collect="always"
       xlink:href="#linearGradient5247"
       id="radialGradient3425"
       gradientUnits="userSpaceOnUse"
       gradientTransform="matrix(1,0,0,1.9019608,0,-6.1783597)"
       cx="54.672985"
       cy="6.8499207"
       fx="54.045624"
       fy="6.341433"
       r="1.2890996" />
    <radialGradient
       inkscape:collect="always"
       xlink:href="#linearGradient5247"
       id="radialGradient3427"
       gradientUnits="userSpaceOnUse"
       gradientTransform="matrix(1,0,0,1.9019608,0,-6.1783597)"
       cx="54.672985"
       cy="6.8499207"
       fx="54.045624"
       fy="6.341433"
       r="1.2890996" />
    <linearGradient
       inkscape:collect="always"
       xlink:href="#linearGradient5267"
       id="linearGradient3429"
       gradientUnits="userSpaceOnUse"
       x1="43.713863"
       y1="11.36219"
       x2="18.252157"
       y2="21.728621" />
    <radialGradient
       inkscape:collect="always"
       xlink:href="#linearGradient5247"
       id="radialGradient3431"
       gradientUnits="userSpaceOnUse"
       gradientTransform="matrix(1,0,0,1.9019608,0,-6.1783597)"
       cx="54.672985"
       cy="6.8499207"
       fx="54.045624"
       fy="6.341433"
       r="1.2890996" />
    <linearGradient
       inkscape:collect="always"
       xlink:href="#linearGradient5267"
       id="linearGradient3433"
       gradientUnits="userSpaceOnUse"
       x1="52.721935"
       y1="17.796528"
       x2="38.62756"
       y2="22.658024" />
    <radialGradient
       inkscape:collect="always"
       xlink:href="#linearGradient5247"
       id="radialGradient3435"
       gradientUnits="userSpaceOnUse"
       gradientTransform="matrix(1,0,0,1.9019608,0,-6.1783597)"
       cx="54.672985"
       cy="6.8499207"
       fx="54.045624"
       fy="6.341433"
       r="1.2890996" />
    <radialGradient
       inkscape:collect="always"
       xlink:href="#linearGradient3285"
       id="radialGradient3437"
       gradientUnits="userSpaceOnUse"
       gradientTransform="matrix(1,0,0,1.9019608,0,-6.1783597)"
       cx="54.672985"
       cy="6.8499207"
       fx="54.672985"
       fy="6.8499207"
       r="1.2890996" />
    <radialGradient
       inkscape:collect="always"
       xlink:href="#linearGradient3285"
       id="radialGradient3439"
       gradientUnits="userSpaceOnUse"
       gradientTransform="matrix(1,0,0,1.9019608,0,-6.1783597)"
       cx="54.672985"
       cy="6.8499207"
       fx="54.672985"
       fy="6.8499207"
       r="1.2890996" />
    <linearGradient
       inkscape:collect="always"
       xlink:href="#linearGradient5515"
       id="linearGradient3441"
       gradientUnits="userSpaceOnUse"
       x1="114.2963"
       y1="49.937351"
       x2="114.2963"
       y2="61.877388" />
    <linearGradient
       inkscape:collect="always"
       xlink:href="#linearGradient5515"
       id="linearGradient3443"
       gradientUnits="userSpaceOnUse"
       x1="114.2963"
       y1="49.937351"
       x2="114.2963"
       y2="61.877388" />
    <linearGradient
       inkscape:collect="always"
       xlink:href="#linearGradient5880"
       id="linearGradient3445"
       gradientUnits="userSpaceOnUse"
       x1="63.993221"
       y1="80.369598"
       x2="63.993221"
       y2="66.131996" />
    <linearGradient
       inkscape:collect="always"
       xlink:href="#linearGradient5880"
       id="linearGradient3447"
       gradientUnits="userSpaceOnUse"
       x1="63.993221"
       y1="80.369598"
       x2="63.993221"
       y2="66.131996" />
    <linearGradient
       inkscape:collect="always"
       xlink:href="#linearGradient3292"
       id="linearGradient3449"
       gradientUnits="userSpaceOnUse"
       x1="310.84995"
       y1="-27.656115"
       x2="310.84995"
       y2="270.16995" />
    <linearGradient
       inkscape:collect="always"
       xlink:href="#linearGradient10207"
       id="linearGradient3455"
       gradientUnits="userSpaceOnUse"
       gradientTransform="translate(1.5708871e-6,0)"
       spreadMethod="reflect"
       x1="64"
       y1="81.5"
       x2="64"
       y2="12.678303" />
  </defs>
  <sodipodi:namedview
     inkscape:window-height="946"
     inkscape:window-width="1680"
     inkscape:pageshadow="2"
     inkscape:pageopacity="0.0"
     guidetolerance="10.0"
     gridtolerance="10.0"
     objecttolerance="10.0"
     borderopacity="1.0"
     bordercolor="#666666"
     pagecolor="#ffffff"
     id="base"
     width="48px"
     height="48px"
     gridspacingx="4px"
     gridspacingy="4px"
     gridempspacing="2"
     showgrid="false"
     inkscape:zoom="9.8906252"
     inkscape:cx="19.069722"
     inkscape:cy="18.47176"
     inkscape:window-x="0"
     inkscape:window-y="0"
     inkscape:current-layer="svg2" />
  <g
     id="g3377"
     transform="matrix(0.3931714,0,0,0.3931714,-1.1629702,-1.1629694)"
     inkscape:export-filename="/Users/Marc/Desktop/g3377.png"
     inkscape:export-xdpi="90"
     inkscape:export-ydpi="90">
    <path
       sodipodi:type="inkscape:offset"
       inkscape:radius="1.1002711"
       inkscape:original="M 64 4 C 60.726153 4.0172799 58.62423 4.17392 55.375 4.625 C 54.413049 4.7781799 53.625 5.40555 53.625 6.375 L 53.03125 15.8125 C 52.942739 16.76769 52.27461 17.39683 51.5625 17.625 C 51.540669 17.632 51.5219 17.65003 51.5 17.65625 C 47.383159 18.76142 43.47707 20.37835 39.875 22.46875 C 39.223449 22.75068 38.38287 22.73369 37.6875 22.15625 L 30.59375 15.90625 C 29.908249 15.22075 28.91352 15.33437 28.125 15.90625 C 25.508489 17.88484 23.88968 19.25975 21.5625 21.5625 C 19.259759 23.88968 17.88484 25.50848 15.90625 28.125 C 15.33437 28.91352 15.22075 29.90825 15.90625 30.59375 L 22.15625 37.6875 C 22.629969 38.25798 22.89245 38.99635 22.625 39.53125 L 22.5625 39.65625 C 20.316979 43.45585 18.56764 47.59256 17.4375 51.96875 C 17.425659 51.98939 17.41883 52.01091 17.40625 52.03125 C 17.089039 52.54409 16.55086 52.96283 15.8125 53.03125 L 6.375 53.625 C 5.40556 53.625 4.77819 54.41305 4.625 55.375 C 4.17392 58.62423 4.01728 60.72615 4 64 C 4.01728 67.27385 4.17392 69.37577 4.625 72.625 C 4.77819 73.58695 5.40556 74.375 6.375 74.375 L 15.8125 74.96875 C 16.67985 75.04912 17.25594 75.61532 17.53125 76.25 C 18.634479 80.39335 20.2975 84.31421 22.40625 87.9375 C 22.779169 88.60601 22.78788 89.55186 22.15625 90.3125 L 15.90625 97.40625 C 15.22075 98.09175 15.33437 99.08648 15.90625 99.875 C 17.88484 102.49151 19.25976 104.11031 21.5625 106.4375 C 23.889679 108.74024 25.50848 110.11516 28.125 112.09375 C 28.913519 112.66563 29.90825 112.77925 30.59375 112.09375 L 37.6875 105.84375 C 38.448139 105.21212 39.39399 105.22083 40.0625 105.59375 L 40.15625 105.5 C 43.683909 107.51717 47.48444 109.10952 51.5 110.1875 L 51.5 110.34375 C 52.236399 110.55276 52.94003 111.20302 53.03125 112.1875 L 53.625 121.625 C 53.624999 122.59444 54.41305 123.22181 55.375 123.375 C 58.624229 123.82608 60.72615 123.98272 64 124 C 67.273853 123.98272 69.37577 123.82608 72.625 123.375 C 73.586953 123.22181 74.375 122.59444 74.375 121.625 L 74.96875 112.1875 C 75.059973 111.20302 75.7636 110.55276 76.5 110.34375 L 76.5 110.1875 C 80.515563 109.10952 84.3161 107.51717 87.84375 105.5 L 87.9375 105.59375 C 88.606013 105.22083 89.55186 105.21212 90.3125 105.84375 L 97.40625 112.09375 C 98.091748 112.77926 99.08649 112.66564 99.875 112.09375 C 102.49151 110.11516 104.11031 108.74024 106.4375 106.4375 C 108.74024 104.11031 110.11516 102.49151 112.09375 99.875 C 112.66564 99.08649 112.77926 98.09176 112.09375 97.40625 L 105.84375 90.3125 C 105.21212 89.55186 105.22083 88.60601 105.59375 87.9375 C 107.7025 84.31421 109.36552 80.39335 110.46875 76.25 C 110.74406 75.61532 111.32015 75.04912 112.1875 74.96875 L 121.625 74.375 C 122.59445 74.375 123.22182 73.58695 123.375 72.625 C 123.82608 69.37577 123.98272 67.27385 124 64 C 123.98272 60.72615 123.82608 58.62423 123.375 55.375 C 123.22182 54.41305 122.59445 53.625 121.625 53.625 L 112.1875 53.03125 C 111.44914 52.96283 110.91096 52.54409 110.59375 52.03125 C 110.58812 52.00933 110.56816 51.99066 110.5625 51.96875 C 109.43236 47.59256 107.41129 43.60384 105.4375 39.65625 L 105.375 39.53125 C 105.10755 38.99635 105.37003 38.25798 105.84375 37.6875 L 112.09375 30.59375 C 112.77926 29.90824 112.66563 28.91352 112.09375 28.125 C 110.11516 25.50848 108.74024 23.88968 106.4375 21.5625 C 104.11032 19.25975 102.49152 17.88484 99.875 15.90625 C 99.086478 15.33437 98.09176 15.22074 97.40625 15.90625 L 90.3125 22.15625 C 89.617123 22.73369 88.77655 22.75068 88.125 22.46875 C 84.522933 20.37835 80.61684 18.76142 76.5 17.65625 C 76.478103 17.65003 76.45933 17.632 76.4375 17.625 C 75.725393 17.39683 75.05726 16.76769 74.96875 15.8125 L 74.375 6.375 C 74.375003 5.4055499 73.58695 4.77818 72.625 4.625 C 69.375773 4.1739199 67.27385 4.01728 64 4 z M 64 48 C 72.832003 48 80 55.168 80 64 C 80.000003 72.832 72.832 80 64 80 C 55.168003 80 48 72.832 48 64 C 47.999999 55.168 55.168 48 64 48 z "
       style="fill:#e7e7e7;fill-opacity:1;stroke:#767676;stroke-width:2.03473616;stroke-linecap:round;stroke-linejoin:round;stroke-miterlimit:4;stroke-dasharray:none;stroke-dashoffset:1.08779998;stroke-opacity:1"
       id="path3457"
       d="M 64,2.90625 C 60.693544,2.923702 58.497632,3.0760535 55.21875,3.53125 C 55.208334,3.5311021 55.197916,3.5311021 55.1875,3.53125 C 54.522229,3.6371869 53.885199,3.9283511 53.375,4.40625 C 52.881417,4.8685851 52.584492,5.5590797 52.5625,6.3125 L 52.53125,6.3125 L 52.53125,6.375 L 51.9375,15.75 C 51.891831,16.242853 51.56162,16.45264 51.21875,16.5625 C 50.848429,16.681242 50.830778,16.695065 51.1875,16.59375 C 47.025272,17.711104 43.091337,19.362544 39.4375,21.46875 C 39.117274,21.607314 38.74326,21.618306 38.375,21.3125 L 31.375,15.125 C 31.357097,15.107098 31.330828,15.111046 31.3125,15.09375 C 30.765293,14.577354 30.050462,14.321591 29.375,14.34375 C 28.676914,14.366651 28.01298,14.605293 27.46875,15 C 27.468602,15.010416 27.468602,15.020834 27.46875,15.03125 C 24.83079,17.02606 23.134117,18.453082 20.78125,20.78125 C 18.453094,23.134115 17.026062,24.830778 15.03125,27.46875 C 15.020834,27.468602 15.010416,27.468602 15,27.46875 C 14.605293,28.012981 14.366651,28.676914 14.34375,29.375 C 14.321591,30.050462 14.577354,30.765293 15.09375,31.3125 L 15.125,31.375 L 21.34375,38.40625 C 21.64699,38.771429 21.613795,39.11616 21.65625,39.03125 L 21.625,39.09375 L 21.59375,39.15625 C 19.364047,42.941085 17.621297,47.056684 16.46875,51.40625 C 16.383505,51.554841 16.392408,51.560933 16.46875,51.4375 C 16.303463,51.704722 16.095331,51.902604 15.71875,51.9375 L 6.375,52.53125 L 6.3125,52.53125 L 6.3125,52.5625 C 5.5590813,52.584492 4.8685829,52.881419 4.40625,53.375 C 3.9283534,53.885196 3.6371933,54.522233 3.53125,55.1875 C 3.5311021,55.197916 3.5311021,55.208334 3.53125,55.21875 C 3.0760536,58.497632 2.9237021,60.693542 2.90625,64 C 2.9237021,67.306458 3.0760536,69.502368 3.53125,72.78125 C 3.5311021,72.791666 3.5311021,72.802084 3.53125,72.8125 C 3.6371933,73.477767 3.9283534,74.114804 4.40625,74.625 C 4.8685829,75.118581 5.5590813,75.415508 6.3125,75.4375 L 6.3125,75.46875 L 6.375,75.46875 L 15.75,76.0625 C 16.189188,76.103196 16.383866,76.347731 16.53125,76.6875 C 17.660795,80.8693 19.340651,84.843464 21.46875,88.5 C 21.630119,88.789278 21.654561,89.213073 21.3125,89.625 L 15.125,96.625 C 15.107097,96.642903 15.111046,96.669172 15.09375,96.6875 C 14.577354,97.234707 14.321591,97.949538 14.34375,98.625 C 14.366651,99.323086 14.605293,99.987019 15,100.53125 C 15.010416,100.5314 15.020834,100.5314 15.03125,100.53125 C 17.026062,103.16921 18.453096,104.86588 20.78125,107.21875 C 23.134114,109.5469 24.830778,110.97394 27.46875,112.96875 C 27.468602,112.97917 27.468602,112.98958 27.46875,113 C 28.012981,113.39471 28.676914,113.63335 29.375,113.65625 C 30.050462,113.67841 30.765293,113.42265 31.3125,112.90625 L 31.375,112.875 L 38.40625,106.65625 C 38.818176,106.31419 39.241974,106.40113 39.53125,106.5625 C 39.695027,106.64812 39.87773,106.69111 40.0625,106.6875 C 43.378977,108.54123 46.919194,110.00934 50.65625,111.0625 C 50.795858,111.22663 50.98058,111.34615 51.1875,111.40625 C 51.524353,111.50186 51.890131,111.77003 51.9375,112.28125 L 52.53125,121.625 L 52.53125,121.6875 L 52.5625,121.6875 C 52.584491,122.44092 52.881419,123.13142 53.375,123.59375 C 53.885197,124.07165 54.522234,124.36281 55.1875,124.46875 C 55.197916,124.4689 55.208334,124.4689 55.21875,124.46875 C 58.497631,124.92395 60.693542,125.0763 64,125.09375 C 67.306461,125.0763 69.502368,124.92395 72.78125,124.46875 C 72.791666,124.4689 72.802084,124.4689 72.8125,124.46875 C 73.477768,124.36281 74.114804,124.07165 74.625,123.59375 C 75.118581,123.13142 75.415508,122.44092 75.4375,121.6875 L 75.46875,121.6875 L 75.46875,121.625 L 76.0625,112.25 C 76.109871,111.73877 76.475647,111.50186 76.8125,111.40625 C 77.01942,111.34615 77.204142,111.22663 77.34375,111.0625 C 81.080809,110.00934 84.621029,108.54123 87.9375,106.6875 C 87.945663,106.68294 87.96059,106.69207 87.96875,106.6875 C 88.142962,106.686 88.314329,106.64316 88.46875,106.5625 C 88.758033,106.40113 89.213071,106.34544 89.625,106.6875 L 96.625,112.875 C 96.642903,112.8929 96.669172,112.88895 96.6875,112.90625 C 97.234707,113.42265 97.949533,113.67841 98.625,113.65625 C 99.323091,113.63335 99.98702,113.39472 100.53125,113 C 100.5314,112.98958 100.5314,112.97917 100.53125,112.96875 C 103.16921,110.97394 104.86588,109.5469 107.21875,107.21875 C 109.5469,104.86588 110.97394,103.16921 112.96875,100.53125 C 112.97917,100.5314 112.98958,100.5314 113,100.53125 C 113.39472,99.987022 113.63335,99.32309 113.65625,98.625 C 113.67841,97.949534 113.42265,97.234709 112.90625,96.6875 L 112.875,96.625 L 106.65625,89.59375 C 106.31419,89.181822 106.40113,88.758027 106.5625,88.46875 C 108.6906,84.812214 110.33945,80.868863 111.46875,76.6875 C 111.61613,76.347731 111.84206,76.103196 112.28125,76.0625 L 121.625,75.46875 L 121.6875,75.46875 L 121.6875,75.4375 C 122.44092,75.415508 123.13142,75.118583 123.59375,74.625 C 124.07165,74.114801 124.36281,73.47777 124.46875,72.8125 C 124.4689,72.802084 124.4689,72.791666 124.46875,72.78125 C 124.92395,69.502368 125.0763,67.306458 125.09375,64 C 125.0763,60.693542 124.92395,58.497632 124.46875,55.21875 C 124.4689,55.208334 124.4689,55.197916 124.46875,55.1875 C 124.36281,54.52223 124.07165,53.885199 123.59375,53.375 C 123.13142,52.881417 122.44092,52.584492 121.6875,52.5625 L 121.6875,52.53125 L 121.625,52.53125 L 112.25,51.9375 C 111.87342,51.902604 111.69654,51.70472 111.53125,51.4375 C 110.35111,47.016226 108.33995,43.023652 106.40625,39.15625 L 106.34375,39.03125 C 106.3862,39.116159 106.38426,38.740179 106.6875,38.375 L 112.875,31.375 L 112.90625,31.3125 C 113.42265,30.765291 113.67841,30.050463 113.65625,29.375 C 113.63335,28.676913 113.3947,28.012976 113,27.46875 C 112.98958,27.468602 112.97917,27.468602 112.96875,27.46875 C 110.97394,24.830778 109.5469,23.134114 107.21875,20.78125 C 104.86588,18.453083 103.16922,17.026061 100.53125,15.03125 C 100.5314,15.020834 100.5314,15.010416 100.53125,15 C 99.987023,14.605297 99.323087,14.366653 98.625,14.34375 C 97.949537,14.321589 97.234709,14.577352 96.6875,15.09375 C 96.669172,15.111046 96.642903,15.107097 96.625,15.125 L 89.59375,21.34375 C 89.225478,21.649562 88.882727,21.607314 88.5625,21.46875 C 84.908338,19.362454 80.943477,17.711104 76.78125,16.59375 C 77.137959,16.695076 77.151536,16.681236 76.78125,16.5625 C 76.438382,16.45264 76.108169,16.2116 76.0625,15.71875 L 75.46875,6.375 L 75.46875,6.3125 L 75.4375,6.3125 C 75.41551,5.5590776 75.118584,4.868585 74.625,4.40625 C 74.114801,3.9283513 73.47777,3.637187 72.8125,3.53125 C 72.802084,3.5311021 72.791666,3.5311021 72.78125,3.53125 C 69.502371,3.0760534 67.306458,2.9237021 64,2.90625 z M 64,49.09375 C 72.236687,49.09375 78.90625,55.763316 78.90625,64 C 78.906253,72.236684 72.236684,78.90625 64,78.90625 C 55.763319,78.90625 49.09375,72.236684 49.09375,64 C 49.093749,55.763316 55.763316,49.09375 64,49.09375 z " />
    <path
       sodipodi:type="inkscape:offset"
       inkscape:radius="-1.256453"
       inkscape:original="M 64 4 C 60.726149 4.01728 58.62424 4.17392 55.375 4.625 C 54.413049 4.77818 53.625 5.40555 53.625 6.375 L 53.03125 15.8125 C 52.942749 16.76769 52.27461 17.39683 51.5625 17.625 C 51.540669 17.632 51.52191 17.65003 51.5 17.65625 C 47.383165 18.76142 43.477074 20.37835 39.875 22.46875 C 39.223452 22.75068 38.382874 22.73369 37.6875 22.15625 L 30.59375 15.90625 C 29.908252 15.22075 28.913523 15.33437 28.125 15.90625 C 25.508485 17.88484 23.889683 19.25976 21.5625 21.5625 C 19.259755 23.88968 17.884842 25.50848 15.90625 28.125 C 15.334373 28.91352 15.220752 29.90825 15.90625 30.59375 L 22.15625 37.6875 C 22.629971 38.25798 22.892452 38.99635 22.625 39.53125 L 22.5625 39.65625 C 20.316982 43.45585 18.56764 47.592563 17.4375 51.96875 C 17.425656 51.989389 17.418831 52.010911 17.40625 52.03125 C 17.089041 52.544092 16.55086 52.962834 15.8125 53.03125 L 6.375 53.625 C 5.4055602 53.625001 4.77819 54.41305 4.625 55.375 C 4.1739202 58.624233 4.01728 60.726147 4 64 C 4.0172802 67.273854 4.17392 69.375768 4.625 72.625 C 4.7781902 73.586947 5.40556 74.375 6.375 74.375 L 15.8125 74.96875 C 16.679846 75.049121 17.255936 75.615317 17.53125 76.25 C 18.63448 80.393355 20.297503 84.314208 22.40625 87.9375 C 22.779171 88.606008 22.78788 89.551864 22.15625 90.3125 L 15.90625 97.40625 C 15.220752 98.091747 15.33437 99.08648 15.90625 99.875 C 17.884842 102.49151 19.259755 104.11031 21.5625 106.4375 C 23.889683 108.74024 25.508484 110.11516 28.125 112.09375 C 28.913521 112.66563 29.908252 112.77925 30.59375 112.09375 L 37.6875 105.84375 C 38.448136 105.21212 39.393993 105.22083 40.0625 105.59375 L 40.15625 105.5 C 43.683903 107.51717 47.484446 109.10952 51.5 110.1875 L 51.5 110.34375 C 52.236399 110.55276 52.94003 111.20302 53.03125 112.1875 L 53.625 121.625 C 53.624999 122.59444 54.41305 123.22181 55.375 123.375 C 58.624239 123.82608 60.72615 123.98272 64 124 C 67.273859 123.98272 69.37577 123.82608 72.625 123.375 C 73.586949 123.22181 74.375 122.59444 74.375 121.625 L 74.96875 112.1875 C 75.059979 111.20302 75.7636 110.55276 76.5 110.34375 L 76.5 110.1875 C 80.515559 109.10952 84.3161 107.51717 87.84375 105.5 L 87.9375 105.59375 C 88.606009 105.22083 89.55187 105.21212 90.3125 105.84375 L 97.40625 112.09375 C 98.091759 112.77926 99.08649 112.66564 99.875 112.09375 C 102.49151 110.11516 104.11031 108.74024 106.4375 106.4375 C 108.74024 104.11031 110.11516 102.49151 112.09375 99.875 C 112.66564 99.08649 112.77926 98.091755 112.09375 97.40625 L 105.84375 90.3125 C 105.21212 89.551861 105.22083 88.606007 105.59375 87.9375 C 107.7025 84.314209 109.36552 80.393354 110.46875 76.25 C 110.74406 75.615318 111.32015 75.04912 112.1875 74.96875 L 121.625 74.375 C 122.59445 74.375001 123.22182 73.586946 123.375 72.625 C 123.82608 69.375769 123.98272 67.273853 124 64 C 123.98272 60.726148 123.82608 58.624232 123.375 55.375 C 123.22182 54.413051 122.59445 53.625 121.625 53.625 L 112.1875 53.03125 C 111.44914 52.962835 110.91096 52.544091 110.59375 52.03125 C 110.58812 52.009329 110.56816 51.99066 110.5625 51.96875 C 109.43236 47.592564 107.41129 43.60384 105.4375 39.65625 L 105.375 39.53125 C 105.10755 38.99635 105.37003 38.25798 105.84375 37.6875 L 112.09375 30.59375 C 112.77926 29.90824 112.66563 28.91352 112.09375 28.125 C 110.11516 25.50848 108.74024 23.88968 106.4375 21.5625 C 104.11032 19.25975 102.49152 17.88484 99.875 15.90625 C 99.086489 15.33437 98.09176 15.22075 97.40625 15.90625 L 90.3125 22.15625 C 89.617129 22.73369 88.77655 22.75068 88.125 22.46875 C 84.522929 20.37835 80.61684 18.76142 76.5 17.65625 C 76.478099 17.65003 76.45933 17.632 76.4375 17.625 C 75.725399 17.39683 75.05726 16.76769 74.96875 15.8125 L 74.375 6.375 C 74.374999 5.40555 73.58695 4.77818 72.625 4.625 C 69.375769 4.17392 67.27386 4.01728 64 4 z M 64 48 C 72.831999 48 80 55.168 80 64 C 79.999999 72.832001 72.832 80 64 80 C 55.167999 80.000001 48 72.832 48 64 C 47.999999 55.168 55.168 48 64 48 z "
       style="fill:url(#linearGradient3455);fill-opacity:1;stroke:none;stroke-width:3;stroke-linecap:round;stroke-linejoin:round;stroke-miterlimit:4;stroke-dasharray:none;stroke-dashoffset:1.08779998;stroke-opacity:1"
       id="path3453"
       d="M 64,5.25 C 60.763386,5.2670835 58.77788,5.4286207 55.5625,5.875 C 55.29198,5.9180772 55.096926,6.0342104 55,6.125 C 54.903074,6.2157896 54.875,6.2307246 54.875,6.375 C 54.876166,6.4062391 54.876166,6.4375109 54.875,6.46875 L 54.28125,15.90625 C 54.28138,15.916666 54.28138,15.927084 54.28125,15.9375 C 54.14383,17.420671 53.07126,18.449227 51.9375,18.8125 C 52.313733,18.691863 52.298053,18.746029 51.84375,18.875 C 51.833334,18.87513 51.822916,18.87513 51.8125,18.875 C 47.79984,19.952204 44.004292,21.528846 40.5,23.5625 C 40.459525,23.585636 40.417794,23.606502 40.375,23.625 C 39.345094,24.070648 37.943915,24.012629 36.875,23.125 C 36.864401,23.114767 36.853983,23.104349 36.84375,23.09375 L 29.75,16.84375 C 29.739006,16.82321 29.728585,16.802369 29.71875,16.78125 C 29.615415,16.677915 29.567646,16.683231 29.4375,16.6875 C 29.307354,16.691769 29.098004,16.775766 28.875,16.9375 C 26.282982,18.897566 24.735353,20.195032 22.4375,22.46875 C 20.163779,24.766598 18.866318,26.282976 16.90625,28.875 C 16.744517,29.098002 16.69177,29.307352 16.6875,29.4375 C 16.68323,29.567648 16.677915,29.615415 16.78125,29.71875 C 16.802369,29.728585 16.82321,29.739006 16.84375,29.75 L 23.09375,36.84375 C 23.104349,36.853983 23.114767,36.864401 23.125,36.875 C 23.7934,37.679923 24.37135,38.851059 23.75,40.09375 L 23.6875,40.21875 C 23.677665,40.239869 23.667244,40.26071 23.65625,40.28125 C 21.46854,43.983034 19.755833,48.023388 18.65625,52.28125 C 18.628785,52.390551 18.586742,52.49566 18.53125,52.59375 C 18.603375,52.468067 18.582991,52.502813 18.46875,52.6875 C 17.978051,53.480829 17.088999,54.174553 15.9375,54.28125 C 15.927084,54.28138 15.916666,54.28138 15.90625,54.28125 L 6.46875,54.875 C 6.4375109,54.876166 6.4062391,54.876166 6.375,54.875 C 6.230733,54.875 6.2157923,54.903071 6.125,55 C 6.0342077,55.096929 5.9180807,55.291977 5.875,55.5625 C 5.4286209,58.777873 5.2670835,60.763384 5.25,64 C 5.2670837,67.236617 5.4286207,69.222128 5.875,72.4375 C 5.9180807,72.708022 6.0342072,72.903071 6.125,73 C 6.2157928,73.096929 6.2307348,73.125 6.375,73.125 C 6.4062391,73.123834 6.4375109,73.123834 6.46875,73.125 L 15.90625,73.71875 C 15.916666,73.71862 15.927084,73.71862 15.9375,73.71875 C 17.293783,73.844427 18.266101,74.778547 18.6875,75.75 C 18.713224,75.810762 18.734122,75.873456 18.75,75.9375 C 19.823161,79.967928 21.445013,83.78158 23.5,87.3125 C 24.114506,88.414079 24.087307,89.966149 23.125,91.125 C 23.114767,91.135599 23.104349,91.146017 23.09375,91.15625 L 16.84375,98.25 C 16.82321,98.260994 16.802369,98.271415 16.78125,98.28125 C 16.677916,98.384583 16.683231,98.432352 16.6875,98.5625 C 16.691769,98.692648 16.775768,98.902 16.9375,99.125 C 18.897569,101.71701 20.195028,103.26464 22.46875,105.5625 C 24.766603,107.83622 26.282981,109.13368 28.875,111.09375 C 29.098002,111.25548 29.307353,111.30823 29.4375,111.3125 C 29.567647,111.31677 29.615415,111.32208 29.71875,111.21875 C 29.728585,111.19763 29.739006,111.17679 29.75,111.15625 L 36.84375,104.90625 C 36.853983,104.89565 36.864401,104.88523 36.875,104.875 C 37.754362,104.14478 38.824006,104.0956 39.78125,104.3125 C 40.113123,104.20338 40.475441,104.23735 40.78125,104.40625 C 44.218673,106.37183 47.904454,107.91963 51.8125,108.96875 C 52.16572,109.05925 52.462209,109.29873 52.625,109.625 C 53.459676,110.1382 54.174002,110.90504 54.28125,112.0625 C 54.28138,112.07292 54.28138,112.08333 54.28125,112.09375 L 54.875,121.53125 C 54.876166,121.56249 54.876166,121.59376 54.875,121.625 C 54.875,121.76927 54.903071,121.78421 55,121.875 C 55.096929,121.96579 55.291976,122.08192 55.5625,122.125 C 58.777879,122.57138 60.763387,122.73292 64,122.75 C 67.236622,122.73292 69.22213,122.57138 72.4375,122.125 C 72.708023,122.08192 72.903071,121.96579 73,121.875 C 73.096929,121.78421 73.125,121.76927 73.125,121.625 C 73.123834,121.59376 73.123834,121.56249 73.125,121.53125 L 73.71875,112.09375 C 73.71862,112.08333 73.71862,112.07292 73.71875,112.0625 C 73.827591,110.88797 74.554185,110.10299 75.40625,109.59375 C 75.568927,109.28626 75.851797,109.05996 76.1875,108.96875 C 80.095551,107.91963 83.78133,106.37183 87.21875,104.40625 C 87.524559,104.23735 87.886877,104.20338 88.21875,104.3125 C 89.175995,104.0956 90.245639,104.14478 91.125,104.875 C 91.135599,104.88523 91.146017,104.89565 91.15625,104.90625 L 98.25,111.15625 C 98.260994,111.17679 98.271415,111.19763 98.28125,111.21875 C 98.384594,111.32209 98.432358,111.31677 98.5625,111.3125 C 98.692642,111.30823 98.902007,111.22423 99.125,111.0625 C 101.71701,109.10243 103.26464,107.80497 105.5625,105.53125 C 107.83622,103.23339 109.13368,101.71701 111.09375,99.125 C 111.25548,98.902008 111.30823,98.692643 111.3125,98.5625 C 111.31677,98.432357 111.32209,98.38459 111.21875,98.28125 C 111.19763,98.271415 111.17679,98.260994 111.15625,98.25 L 104.90625,91.15625 C 104.89565,91.146017 104.88523,91.135599 104.875,91.125 C 103.9127,89.966147 103.8855,88.414077 104.5,87.3125 C 106.55499,83.781582 108.17684,79.967928 109.25,75.9375 C 109.26588,75.873456 109.28678,75.810762 109.3125,75.75 C 109.73389,74.778543 110.70621,73.844426 112.0625,73.71875 C 112.07292,73.71862 112.08333,73.71862 112.09375,73.71875 L 121.53125,73.125 C 121.56249,73.123834 121.59376,73.123834 121.625,73.125 C 121.76927,73.125 121.78421,73.096927 121.875,73 C 121.96579,72.903073 122.08192,72.708017 122.125,72.4375 C 122.57138,69.22213 122.73292,67.236616 122.75,64 C 122.73292,60.763385 122.57138,58.777872 122.125,55.5625 C 122.08192,55.291981 121.96579,55.096926 121.875,55 C 121.78421,54.903074 121.76927,54.875 121.625,54.875 C 121.59376,54.876166 121.56249,54.876166 121.53125,54.875 L 112.09375,54.28125 C 112.08333,54.28138 112.07292,54.28138 112.0625,54.28125 C 110.911,54.174554 110.02195,53.480824 109.53125,52.6875 C 109.52065,52.677267 109.51023,52.666849 109.5,52.65625 C 109.50054,52.657105 109.50068,52.625592 109.5,52.625 C 109.44917,52.546574 109.40724,52.462723 109.375,52.375 C 109.35682,52.32752 109.3609,52.347623 109.34375,52.28125 C 108.25807,48.077239 106.28832,44.170396 104.3125,40.21875 L 104.25,40.09375 C 103.62866,38.85106 104.2066,37.679924 104.875,36.875 C 104.88523,36.864401 104.89565,36.853983 104.90625,36.84375 L 111.15625,29.75 C 111.17679,29.739006 111.19763,29.728585 111.21875,29.71875 C 111.32209,29.615405 111.31677,29.567642 111.3125,29.4375 C 111.30823,29.307358 111.22424,29.098006 111.0625,28.875 C 109.10243,26.282977 107.80497,24.73535 105.53125,22.4375 C 103.2334,20.163774 101.71702,18.866317 99.125,16.90625 C 98.902005,16.74452 98.692646,16.691769 98.5625,16.6875 C 98.432354,16.683231 98.384593,16.677909 98.28125,16.78125 C 98.271415,16.802369 98.260994,16.82321 98.25,16.84375 L 91.15625,23.09375 C 91.146017,23.104349 91.135599,23.114767 91.125,23.125 C 90.056087,24.012632 88.654906,24.070647 87.625,23.625 C 87.582206,23.606502 87.540475,23.585636 87.5,23.5625 C 83.995711,21.528846 80.200165,19.952204 76.1875,18.875 C 76.177084,18.87513 76.166666,18.87513 76.15625,18.875 C 75.70199,18.745988 75.686368,18.69189 76.0625,18.8125 C 74.928748,18.449225 73.856183,17.420664 73.71875,15.9375 C 73.71862,15.927084 73.71862,15.916666 73.71875,15.90625 L 73.125,6.46875 C 73.123834,6.4375109 73.123834,6.4062391 73.125,6.375 C 73.125,6.2307243 73.096926,6.2157898 73,6.125 C 72.903074,6.0342102 72.708019,5.9180772 72.4375,5.875 C 69.222129,5.4286207 67.236623,5.2670835 64,5.25 z M 64,46.75 C 73.511819,46.75 81.25,54.48818 81.25,64 C 81.249999,73.511821 73.51182,81.25 64,81.25 C 54.488179,81.250001 46.75,73.51182 46.75,64 C 46.749999,54.48818 54.48818,46.75 64,46.75 z " />
    <path
       transform="translate(148,0)"
       mask="url(#mask4921)"
       style="fill:url(#radialGradient3413);fill-opacity:1;stroke:none;stroke-width:3;stroke-linecap:round;stroke-linejoin:round;stroke-miterlimit:4;stroke-dasharray:none;stroke-dashoffset:1.08779998;stroke-opacity:1"
       d="M -83.999999,4 C -87.273852,4.0172764 -89.375767,4.1739184 -92.624999,4.625 C -93.586949,4.778184 -94.374999,5.4055494 -94.374999,6.375 L -94.968749,15.8125 C -95.057257,16.767694 -95.725392,17.39683 -96.437499,17.625 C -96.45933,17.631995 -96.478095,17.650033 -96.499999,17.65625 C -100.61684,18.761419 -104.52293,20.378352 -108.125,22.46875 C -108.77655,22.750681 -109.61713,22.733687 -110.3125,22.15625 L -117.40625,15.90625 C -118.09175,15.220752 -119.08648,15.33437 -119.875,15.90625 C -122.49151,17.884842 -124.11032,19.259755 -126.4375,21.5625 C -128.74024,23.889683 -130.11516,25.508484 -132.09375,28.125 C -132.66563,28.913521 -132.77925,29.908252 -132.09375,30.59375 L -125.84375,37.6875 C -125.37003,38.257979 -125.10755,38.996346 -125.375,39.53125 L -125.4375,39.65625 C -127.68302,43.45585 -129.43236,47.592563 -130.5625,51.96875 C -130.57434,51.989388 -130.58117,52.010911 -130.59375,52.03125 C -130.91096,52.544091 -131.44914,52.962834 -132.1875,53.03125 L -141.625,53.625 C -142.59444,53.625 -143.22181,54.41305 -143.375,55.375 C -143.82608,58.624232 -143.98272,60.726147 -144,64 C -143.98272,67.273853 -143.82608,69.375768 -143.375,72.625 C -143.22181,73.586946 -142.59444,74.375 -141.625,74.375 L -132.1875,74.96875 C -131.32015,75.04912 -130.74406,75.615317 -130.46875,76.25 C -129.36552,80.393354 -127.7025,84.314208 -125.59375,87.9375 C -125.22083,88.606007 -125.21212,89.551864 -125.84375,90.3125 L -132.09375,97.40625 C -132.77925,98.091746 -132.66563,99.086477 -132.09375,99.875 C -130.11516,102.49151 -128.74024,104.11031 -126.4375,106.4375 C -124.11032,108.74024 -122.49152,110.11516 -119.875,112.09375 C -119.08648,112.66563 -118.09175,112.77925 -117.40625,112.09375 L -110.3125,105.84375 C -109.55186,105.21212 -108.60601,105.22083 -107.9375,105.59375 L -107.84375,105.5 C -104.31609,107.51717 -100.51556,109.10952 -96.499999,110.1875 L -96.499999,110.34375 C -95.763598,110.55276 -95.05997,111.20302 -94.968749,112.1875 L -94.374999,121.625 C -94.374999,122.59444 -93.586949,123.22181 -92.624999,123.375 C -89.375767,123.82608 -87.273852,123.98272 -83.999999,124 C -80.726146,123.98272 -78.624231,123.82608 -75.374999,123.375 C -74.413053,123.22181 -73.624999,122.59444 -73.624999,121.625 L -73.031249,112.1875 C -72.940025,111.20302 -72.2364,110.55276 -71.499999,110.34375 L -71.499999,110.1875 C -67.484442,109.10952 -63.683904,107.51717 -60.156249,105.5 L -60.062499,105.59375 C -59.393992,105.22083 -58.448137,105.21212 -57.687499,105.84375 L -50.593749,112.09375 C -49.908246,112.77926 -48.913512,112.66564 -48.124999,112.09375 C -45.508489,110.11516 -43.889689,108.74024 -41.562499,106.4375 C -39.259759,104.11031 -37.884839,102.49151 -35.906249,99.875 C -35.334359,99.086487 -35.220739,98.091755 -35.906249,97.40625 L -42.156249,90.3125 C -42.787879,89.55186 -42.779169,88.606007 -42.406249,87.9375 C -40.297499,84.314208 -38.634479,80.393354 -37.531249,76.25 C -37.255939,75.615317 -36.679849,75.04912 -35.812499,74.96875 L -26.374999,74.375 C -25.405549,74.375 -24.778179,73.586946 -24.624999,72.625 C -24.173919,69.375768 -24.017279,67.273853 -23.999999,64 C -24.017279,60.726147 -24.173919,58.624232 -24.624999,55.375 C -24.778179,54.41305 -25.405549,53.625 -26.374999,53.625 L -35.812499,53.03125 C -36.550859,52.962834 -37.089039,52.544091 -37.406249,52.03125 C -37.411879,52.009328 -37.431839,51.99066 -37.437499,51.96875 C -38.567639,47.592563 -40.588709,43.603839 -42.562499,39.65625 L -42.624999,39.53125 C -42.892449,38.996346 -42.629969,38.257977 -42.156249,37.6875 L -35.906249,30.59375 C -35.220739,29.908244 -35.334369,28.913516 -35.906249,28.125 C -37.884839,25.508484 -39.259759,23.88968 -41.562499,21.5625 C -43.889679,19.259753 -45.508479,17.884841 -48.124999,15.90625 C -48.913515,15.334366 -49.908243,15.220745 -50.593749,15.90625 L -57.687499,22.15625 C -58.382875,22.733685 -59.223454,22.750682 -59.874999,22.46875 C -63.477074,20.378352 -67.383162,18.761419 -71.499999,17.65625 C -71.521903,17.650033 -71.540668,17.631995 -71.562499,17.625 C -72.274606,17.39683 -72.942738,16.767694 -73.031249,15.8125 L -73.624999,6.375 C -73.624999,5.4055494 -74.413053,4.778184 -75.374999,4.625 C -78.624231,4.1739184 -80.726146,4.0172764 -83.999999,4 z M -83.999999,48 C -75.168,47.999999 -67.999999,55.168 -67.999999,64 C -68,72.832 -75.168,80 -83.999999,80 C -92.831999,80 -99.999999,72.832 -99.999999,64 C -99.999998,55.167999 -92.831998,48 -83.999999,48 z "
       id="path4891"
       sodipodi:nodetypes="ccccssccccccccsccscccccccccccccccccccccccccccccccccccccccccccccccssssccccccccsscccccsssc" />
    <path
       transform="translate(1.5e-6,143.5)"
       id="path4953"
       d="M 76.90625,-70.062499 C 73.993994,-66.090403 69.299199,-63.499999 64,-63.499999 C 59.104212,-63.499999 54.716932,-65.68865 51.78125,-69.156249 L 20.28125,-38.406249 C 20.690082,-37.972249 21.088367,-37.541669 21.5625,-37.062499 C 23.88968,-34.759759 25.50848,-33.384839 28.125,-31.406249 C 28.91352,-30.834369 29.90825,-30.720749 30.59375,-31.406249 L 37.6875,-37.656249 C 38.44814,-38.287879 39.39399,-38.279169 40.0625,-37.906249 L 40.15625,-37.999999 C 43.68391,-35.982829 47.484439,-34.390479 51.5,-33.312499 L 51.5,-33.156249 C 52.236402,-32.947239 52.940029,-32.296979 53.03125,-31.312499 L 53.625,-21.874999 C 53.625001,-20.905559 54.41305,-20.278189 55.375,-20.124999 C 58.624233,-19.673919 60.726147,-19.517279 64,-19.499999 C 67.273854,-19.517279 69.375768,-19.673919 72.625,-20.124999 C 73.586947,-20.278189 74.375,-20.905559 74.375,-21.874999 L 74.96875,-31.312499 C 75.059975,-32.296979 75.763599,-32.947239 76.5,-33.156249 L 76.5,-33.312499 C 80.515558,-34.390479 84.316095,-35.982829 87.84375,-37.999999 L 87.9375,-37.906249 C 88.606008,-38.279169 89.551862,-38.287879 90.3125,-37.656249 L 97.40625,-31.406249 C 98.091754,-30.720739 99.086487,-30.834359 99.875,-31.406249 C 102.49151,-33.384839 104.11031,-34.759759 106.4375,-37.062499 C 106.92292,-37.553069 107.3327,-37.993909 107.75,-38.437499 L 76.90625,-70.062499 z "
       clip-path="url(#clipPath5073)"
       mask="none"
       style="opacity:0.43122678;fill:url(#radialGradient3415);fill-opacity:1;stroke:none;stroke-width:3;stroke-linecap:round;stroke-linejoin:round;stroke-miterlimit:4;stroke-dasharray:none;stroke-dashoffset:1.08779998;stroke-opacity:1;filter:url(#filter5054)" />
    <path
       transform="matrix(-1,0,0,-1,127.98705,-15.49155)"
       style="opacity:0.43122678;fill:url(#radialGradient3417);fill-opacity:1;stroke:none;stroke-width:3;stroke-linecap:round;stroke-linejoin:round;stroke-miterlimit:4;stroke-dasharray:none;stroke-dashoffset:1.08779998;stroke-opacity:1;filter:url(#filter5054)"
       mask="none"
       clip-path="url(#clipPath5073)"
       d="M 76.90625,-70.062499 C 73.993994,-66.090403 69.299199,-63.499999 64,-63.499999 C 59.104212,-63.499999 54.716932,-65.68865 51.78125,-69.156249 L 20.28125,-38.406249 C 20.690082,-37.972249 21.088367,-37.541669 21.5625,-37.062499 C 23.88968,-34.759759 25.50848,-33.384839 28.125,-31.406249 C 28.91352,-30.834369 29.90825,-30.720749 30.59375,-31.406249 L 37.6875,-37.656249 C 38.44814,-38.287879 39.39399,-38.279169 40.0625,-37.906249 L 40.15625,-37.999999 C 43.68391,-35.982829 47.484439,-34.390479 51.5,-33.312499 L 51.5,-33.156249 C 52.236402,-32.947239 52.940029,-32.296979 53.03125,-31.312499 L 53.625,-21.874999 C 53.625001,-20.905559 54.41305,-20.278189 55.375,-20.124999 C 58.624233,-19.673919 60.726147,-19.517279 64,-19.499999 C 67.273854,-19.517279 69.375768,-19.673919 72.625,-20.124999 C 73.586947,-20.278189 74.375,-20.905559 74.375,-21.874999 L 74.96875,-31.312499 C 75.059975,-32.296979 75.763599,-32.947239 76.5,-33.156249 L 76.5,-33.312499 C 80.515558,-34.390479 84.316095,-35.982829 87.84375,-37.999999 L 87.9375,-37.906249 C 88.606008,-38.279169 89.551862,-38.287879 90.3125,-37.656249 L 97.40625,-31.406249 C 98.091754,-30.720739 99.086487,-30.834359 99.875,-31.406249 C 102.49151,-33.384839 104.11031,-34.759759 106.4375,-37.062499 C 106.92292,-37.553069 107.3327,-37.993909 107.75,-38.437499 L 76.90625,-70.062499 z "
       id="path5079" />
    <path
       style="opacity:0.73234199;fill:url(#radialGradient3419);fill-opacity:1;stroke:none;stroke-width:3;stroke-linecap:round;stroke-linejoin:round;stroke-miterlimit:4;stroke-dasharray:none;stroke-dashoffset:1.08779998;stroke-opacity:1"
       d="M 63.999999,5.3170088 C 60.798009,5.3339095 58.742229,5.4871112 55.564319,5.92829 C 54.623489,6.0781077 53.852739,6.6917068 53.852739,7.6398772 L 53.272019,16.870223 C 53.185449,17.804446 52.531989,18.419776 51.835509,18.642938 C 51.814159,18.649784 51.795799,18.667419 51.774379,18.673502 C 47.747904,19.754413 43.927553,21.335852 40.404549,23.380367 C 39.767301,23.656109 38.945172,23.639492 38.265065,23.074726 L 31.327024,16.961915 C 30.656571,16.291462 29.683675,16.402588 28.912463,16.961915 C 26.353386,18.897075 24.770109,20.241805 22.494011,22.494009 C 20.241817,24.770107 18.897077,26.353375 16.961917,28.912462 C 16.40259,29.683673 16.291464,30.656569 16.961917,31.327022 L 23.074728,38.265063 C 23.53805,38.823021 23.794769,39.545184 23.533189,40.068343 L 23.472061,40.190599 C 21.275831,43.906797 19.564889,47.952709 18.459556,52.232838 C 18.447976,52.253023 18.441296,52.274073 18.428992,52.293966 C 18.118744,52.79555 17.592378,53.205101 16.870225,53.272016 L 7.6398786,53.852733 C 6.6917186,53.852733 6.0781196,54.623485 5.9282916,55.56432 C 5.4871136,58.742231 5.3339116,60.798009 5.3170106,64 C 5.3339116,67.201991 5.4871136,69.257769 5.9282916,72.43568 C 6.0781196,73.376511 6.6917186,74.147267 7.6398786,74.147267 L 16.870225,74.727984 C 17.718536,74.80659 18.281981,75.360359 18.551248,75.981111 C 19.630262,80.033517 21.256778,83.868308 23.319241,87.412068 C 23.683975,88.065902 23.692494,88.990997 23.074728,89.734937 L 16.961917,96.672978 C 16.291464,97.343427 16.40259,98.316327 16.961917,99.087538 C 18.897077,101.64662 20.241817,103.22988 22.494011,105.50599 C 24.770109,107.75819 26.353376,109.10293 28.912463,111.03809 C 29.683675,111.59741 30.656571,111.70854 31.327024,111.03809 L 38.265065,104.92527 C 39.009009,104.30751 39.934098,104.31603 40.587934,104.68076 L 40.679626,104.58907 C 44.129853,106.56196 47.846961,108.11936 51.774379,109.17368 L 51.774379,109.3265 C 52.494619,109.53092 53.182799,110.16691 53.272019,111.12978 L 53.852739,120.36012 C 53.852739,121.30828 54.623489,121.92188 55.564319,122.07171 C 58.742229,122.51289 60.798009,122.66609 63.999999,122.68299 C 67.201989,122.66609 69.257769,122.51289 72.435679,122.07171 C 73.376519,121.92188 74.147269,121.30828 74.147269,120.36012 L 74.727989,111.12978 C 74.817209,110.16691 75.505389,109.53092 76.225629,109.3265 L 76.225629,109.17368 C 80.153039,108.11936 83.870159,106.56196 87.320379,104.58907 L 87.412069,104.68076 C 88.065909,104.31603 88.990999,104.30751 89.734939,104.92527 L 96.672979,111.03809 C 97.343429,111.70855 98.316339,111.59742 99.087539,111.03809 C 101.64662,109.10293 103.22988,107.75819 105.50599,105.50599 C 107.75819,103.22988 109.10293,101.64662 111.03809,99.087538 C 111.59742,98.316336 111.70855,97.343436 111.03809,96.672978 L 104.92527,89.734937 C 104.30751,88.990993 104.31603,88.065902 104.68076,87.412068 C 106.74322,83.868308 108.36974,80.033517 109.44875,75.981111 C 109.71802,75.360359 110.28147,74.80659 111.12978,74.727984 L 120.36012,74.147267 C 121.30829,74.147267 121.92189,73.376511 122.07171,72.43568 C 122.51289,69.257769 122.66609,67.201991 122.68299,64 C 122.66609,60.798009 122.51289,58.742231 122.07171,55.56432 C 121.92189,54.623485 121.30829,53.852733 120.36012,53.852733 L 111.12978,53.272016 C 110.40762,53.205101 109.88126,52.79555 109.57101,52.293966 C 109.5655,52.272525 109.54598,52.254267 109.54045,52.232838 C 108.43511,47.952709 106.45841,44.051538 104.52794,40.190599 L 104.46681,40.068343 C 104.20523,39.545184 104.46195,38.823021 104.92527,38.265063 L 111.03809,31.327022 C 111.70855,30.656559 111.59741,29.683673 111.03809,28.912462 C 109.10293,26.353375 107.75819,24.770107 105.50599,22.494009 C 103.22989,20.241805 101.64663,18.897075 99.087539,16.961915 C 98.316329,16.402588 97.343439,16.291452 96.672979,16.961915 L 89.734939,23.074726 C 89.054819,23.639492 88.232699,23.656109 87.595459,23.380367 C 84.072449,21.335852 80.252099,19.754413 76.225629,18.673502 C 76.204209,18.667419 76.185849,18.649784 76.164499,18.642938 C 75.468019,18.419776 74.814549,17.804446 74.727989,16.870223 L 74.147269,7.6398772 C 74.147269,6.6917068 73.376519,6.0781077 72.435679,5.92829 C 69.257769,5.4871112 67.201989,5.3339095 63.999999,5.3170088 z M 63.999999,48.351202 C 72.638139,48.351201 79.648799,55.361864 79.648799,64 C 79.648799,72.638136 72.638139,79.648798 63.999999,79.648798 C 55.361869,79.648798 48.351209,72.638136 48.351209,64 C 48.351209,55.361863 55.361869,48.351202 63.999999,48.351202 z "
       id="path5085"
       sodipodi:nodetypes="ccccssccccccccsccscccccccccccccccccccccccccccccccccccccccccccccccssssccccccccsscccccsssc" />
    <path
       sodipodi:type="inkscape:offset"
       inkscape:radius="0"
       inkscape:original="M 15.5 28.9375 C 15.34004 29.522915 15.44401 30.131509 15.90625 30.59375 L 22.15625 37.6875 C 22.369971 37.944872 22.52654 38.239635 22.625 38.53125 C 22.892451 37.99635 22.62997 37.25798 22.15625 36.6875 L 15.90625 29.59375 C 15.70893 29.396433 15.57303 29.173766 15.5 28.9375 z M 112.46875 28.9375 C 112.39573 29.173767 112.29107 29.39643 112.09375 29.59375 L 105.84375 36.6875 C 105.37785 37.248562 105.12909 37.967423 105.375 38.5 C 105.47508 38.220513 105.63888 37.934222 105.84375 37.6875 L 112.09375 30.59375 C 112.556 30.131502 112.62872 29.522913 112.46875 28.9375 z M 64 47 C 55.167999 47 47.999998 54.167999 48 63 C 47.999999 63.170003 48.025978 63.331269 48.03125 63.5 C 48.299883 54.902828 55.338003 48 64 48 C 72.662104 47.999999 79.700284 54.902677 79.96875 63.5 C 79.974015 63.331378 80 63.169893 80 63 C 79.999999 54.168 72.831998 46.999999 64 47 z M 124 63.5 C 123.9688 66.479862 123.80138 68.553675 123.375 71.625 C 123.22182 72.586946 122.59445 73.375 121.625 73.375 L 112.1875 73.96875 C 111.32015 74.04912 110.74406 74.615317 110.46875 75.25 C 109.36552 79.393354 107.7025 83.314208 105.59375 86.9375 C 105.3564 87.362983 105.24608 87.906576 105.375 88.4375 C 105.41879 88.253701 105.50521 88.096221 105.59375 87.9375 C 107.7025 84.314208 109.36552 80.393354 110.46875 76.25 C 110.74406 75.615317 111.32015 75.04912 112.1875 74.96875 L 121.625 74.375 C 122.59445 74.375 123.22182 73.586946 123.375 72.625 C 123.82608 69.375768 123.98272 67.273853 124 64 C 123.99906 63.820745 124.00181 63.672609 124 63.5 z M 4.03125 65.28125 C 4.0823801 67.851735 4.23727 69.832063 4.625 72.625 C 4.7781901 73.586946 5.40556 74.375 6.375 74.375 L 15.8125 74.96875 C 16.67985 75.04912 17.25594 75.615317 17.53125 76.25 C 18.634481 80.393354 20.2975 84.314208 22.40625 87.9375 C 22.494601 88.095885 22.54996 88.25413 22.59375 88.4375 C 22.722671 87.906576 22.6436 87.362983 22.40625 86.9375 C 20.297501 83.314208 18.63448 79.393354 17.53125 75.25 C 17.255941 74.615317 16.67985 74.04912 15.8125 73.96875 L 6.375 73.375 C 5.4055601 73.375 4.77819 72.586946 4.625 71.625 C 4.2866901 69.188076 4.10374 67.405878 4.03125 65.28125 z M 15.5 98.0625 C 15.31933 98.647047 15.49898 99.313451 15.90625 99.875 C 17.88484 102.49151 19.25976 104.11031 21.5625 106.4375 C 23.889681 108.74024 25.50848 110.11516 28.125 112.09375 C 28.913519 112.66563 29.90825 112.77925 30.59375 112.09375 L 37.6875 105.84375 C 38.448137 105.21212 39.39399 105.22083 40.0625 105.59375 L 40.15625 105.5 C 43.683907 107.51717 47.48444 109.10952 51.5 110.1875 L 51.5 110.34375 C 52.236397 110.55276 52.94003 111.20302 53.03125 112.1875 L 53.625 121.625 C 53.624997 122.59444 54.41305 123.22181 55.375 123.375 C 58.624227 123.82608 60.72615 123.98272 64 124 C 67.273847 123.98272 69.37577 123.82608 72.625 123.375 C 73.586947 123.22181 74.375 122.59444 74.375 121.625 L 74.96875 112.1875 C 75.059967 111.20302 75.7636 110.55276 76.5 110.34375 L 76.5 110.1875 C 80.515557 109.10952 84.3161 107.51717 87.84375 105.5 L 87.9375 105.59375 C 88.606007 105.22083 89.55186 105.21212 90.3125 105.84375 L 97.40625 112.09375 C 98.091749 112.77926 99.086492 112.66564 99.875 112.09375 C 102.49151 110.11516 104.11031 108.74024 106.4375 106.4375 C 108.74024 104.11031 110.11516 102.49151 112.09375 99.875 C 112.50103 99.313458 112.64943 98.64705 112.46875 98.0625 C 112.39149 98.345251 112.28001 98.618192 112.09375 98.875 C 110.11516 101.49151 108.74024 103.11031 106.4375 105.4375 C 104.11031 107.74024 102.49151 109.11516 99.875 111.09375 C 99.086489 111.66564 98.09175 111.77926 97.40625 111.09375 L 90.3125 104.84375 C 89.551859 104.21212 88.606008 104.22083 87.9375 104.59375 L 87.84375 104.5 C 84.316099 106.51717 80.515558 108.10952 76.5 109.1875 L 76.5 109.34375 C 75.763599 109.55276 75.059968 110.20302 74.96875 111.1875 L 74.375 120.625 C 74.374999 121.59444 73.586948 122.22181 72.625 122.375 C 69.375769 122.82608 67.273848 122.98272 64 123 C 60.726149 122.98272 58.624228 122.82608 55.375 122.375 C 54.413049 122.22181 53.624998 121.59444 53.625 120.625 L 53.03125 111.1875 C 52.940029 110.20302 52.236398 109.55276 51.5 109.34375 L 51.5 109.1875 C 47.484439 108.10952 43.683908 106.51717 40.15625 104.5 L 40.0625 104.59375 C 39.393989 104.22083 38.448138 104.21212 37.6875 104.84375 L 30.59375 111.09375 C 29.908251 111.77925 28.913518 111.66563 28.125 111.09375 C 25.508481 109.11516 23.88968 107.74024 21.5625 105.4375 C 19.259761 103.11031 17.88484 101.49151 15.90625 98.875 C 15.72 98.618188 15.57726 98.345252 15.5 98.0625 z "
       style="opacity:0.73234199;fill:#ffffff;fill-opacity:1;stroke:none;stroke-width:3;stroke-linecap:round;stroke-linejoin:round;stroke-miterlimit:4;stroke-dasharray:none;stroke-dashoffset:1.08779998;stroke-opacity:1"
       id="path3451"
       d="M 15.5,28.9375 C 15.34004,29.522915 15.44401,30.131509 15.90625,30.59375 L 22.15625,37.6875 C 22.369971,37.944872 22.52654,38.239635 22.625,38.53125 C 22.892451,37.99635 22.62997,37.25798 22.15625,36.6875 L 15.90625,29.59375 C 15.70893,29.396433 15.57303,29.173766 15.5,28.9375 z M 112.46875,28.9375 C 112.39573,29.173767 112.29107,29.39643 112.09375,29.59375 L 105.84375,36.6875 C 105.37785,37.248562 105.12909,37.967423 105.375,38.5 C 105.47508,38.220513 105.63888,37.934222 105.84375,37.6875 L 112.09375,30.59375 C 112.556,30.131502 112.62872,29.522913 112.46875,28.9375 z M 64,47 C 55.167999,47 47.999998,54.167999 48,63 C 47.999999,63.170003 48.025978,63.331269 48.03125,63.5 C 48.299883,54.902828 55.338003,48 64,48 C 72.662104,47.999999 79.700284,54.902677 79.96875,63.5 C 79.974015,63.331378 80,63.169893 80,63 C 79.999999,54.168 72.831998,46.999999 64,47 z M 124,63.5 C 123.9688,66.479862 123.80138,68.553675 123.375,71.625 C 123.22182,72.586946 122.59445,73.375 121.625,73.375 L 112.1875,73.96875 C 111.32015,74.04912 110.74406,74.615317 110.46875,75.25 C 109.36552,79.393354 107.7025,83.314208 105.59375,86.9375 C 105.3564,87.362983 105.24608,87.906576 105.375,88.4375 C 105.41879,88.253701 105.50521,88.096221 105.59375,87.9375 C 107.7025,84.314208 109.36552,80.393354 110.46875,76.25 C 110.74406,75.615317 111.32015,75.04912 112.1875,74.96875 L 121.625,74.375 C 122.59445,74.375 123.22182,73.586946 123.375,72.625 C 123.82608,69.375768 123.98272,67.273853 124,64 C 123.99906,63.820745 124.00181,63.672609 124,63.5 z M 4.03125,65.28125 C 4.0823801,67.851735 4.23727,69.832063 4.625,72.625 C 4.7781901,73.586946 5.40556,74.375 6.375,74.375 L 15.8125,74.96875 C 16.67985,75.04912 17.25594,75.615317 17.53125,76.25 C 18.634481,80.393354 20.2975,84.314208 22.40625,87.9375 C 22.494601,88.095885 22.54996,88.25413 22.59375,88.4375 C 22.722671,87.906576 22.6436,87.362983 22.40625,86.9375 C 20.297501,83.314208 18.63448,79.393354 17.53125,75.25 C 17.255941,74.615317 16.67985,74.04912 15.8125,73.96875 L 6.375,73.375 C 5.4055601,73.375 4.77819,72.586946 4.625,71.625 C 4.2866901,69.188076 4.10374,67.405878 4.03125,65.28125 z M 15.5,98.0625 C 15.31933,98.647047 15.49898,99.313451 15.90625,99.875 C 17.88484,102.49151 19.25976,104.11031 21.5625,106.4375 C 23.889681,108.74024 25.50848,110.11516 28.125,112.09375 C 28.913519,112.66563 29.90825,112.77925 30.59375,112.09375 L 37.6875,105.84375 C 38.448137,105.21212 39.39399,105.22083 40.0625,105.59375 L 40.15625,105.5 C 43.683907,107.51717 47.48444,109.10952 51.5,110.1875 L 51.5,110.34375 C 52.236397,110.55276 52.94003,111.20302 53.03125,112.1875 L 53.625,121.625 C 53.624997,122.59444 54.41305,123.22181 55.375,123.375 C 58.624227,123.82608 60.72615,123.98272 64,124 C 67.273847,123.98272 69.37577,123.82608 72.625,123.375 C 73.586947,123.22181 74.375,122.59444 74.375,121.625 L 74.96875,112.1875 C 75.059967,111.20302 75.7636,110.55276 76.5,110.34375 L 76.5,110.1875 C 80.515557,109.10952 84.3161,107.51717 87.84375,105.5 L 87.9375,105.59375 C 88.606007,105.22083 89.55186,105.21212 90.3125,105.84375 L 97.40625,112.09375 C 98.091749,112.77926 99.086492,112.66564 99.875,112.09375 C 102.49151,110.11516 104.11031,108.74024 106.4375,106.4375 C 108.74024,104.11031 110.11516,102.49151 112.09375,99.875 C 112.50103,99.313458 112.64943,98.64705 112.46875,98.0625 C 112.39149,98.345251 112.28001,98.618192 112.09375,98.875 C 110.11516,101.49151 108.74024,103.11031 106.4375,105.4375 C 104.11031,107.74024 102.49151,109.11516 99.875,111.09375 C 99.086489,111.66564 98.09175,111.77926 97.40625,111.09375 L 90.3125,104.84375 C 89.551859,104.21212 88.606008,104.22083 87.9375,104.59375 L 87.84375,104.5 C 84.316099,106.51717 80.515558,108.10952 76.5,109.1875 L 76.5,109.34375 C 75.763599,109.55276 75.059968,110.20302 74.96875,111.1875 L 74.375,120.625 C 74.374999,121.59444 73.586948,122.22181 72.625,122.375 C 69.375769,122.82608 67.273848,122.98272 64,123 C 60.726149,122.98272 58.624228,122.82608 55.375,122.375 C 54.413049,122.22181 53.624998,121.59444 53.625,120.625 L 53.03125,111.1875 C 52.940029,110.20302 52.236398,109.55276 51.5,109.34375 L 51.5,109.1875 C 47.484439,108.10952 43.683908,106.51717 40.15625,104.5 L 40.0625,104.59375 C 39.393989,104.22083 38.448138,104.21212 37.6875,104.84375 L 30.59375,111.09375 C 29.908251,111.77925 28.913518,111.66563 28.125,111.09375 C 25.508481,109.11516 23.88968,107.74024 21.5625,105.4375 C 19.259761,103.11031 17.88484,101.49151 15.90625,98.875 C 15.72,98.618188 15.57726,98.345252 15.5,98.0625 z " />
    <path
       sodipodi:nodetypes="cssssss"
       id="path5211"
       d="M 55.234189,4.1094074 C 59.793055,3.6731616 67.427002,3.5064632 72.177942,4.0736611 C 74.083693,4.301182 74.71593,6.9512399 74.322721,11.437402 C 74.295467,11.748351 73.75078,5.4767039 71.820479,5.3962749 C 67.149676,5.2016579 60.140185,4.9297589 55.591652,5.3962749 C 54.546072,5.5035139 53.630117,7.5889509 53.625605,7.2550829 C 53.607732,5.8609769 53.379455,4.2868901 55.234189,4.1094074 z "
       style="fill:url(#linearGradient3423);fill-opacity:1;fill-rule:evenodd;stroke:none;stroke-width:1px;stroke-linecap:butt;stroke-linejoin:miter;stroke-opacity:1;filter:url(#filter5257)"
       transform="matrix(0.855564,0,0,0.855564,9.2469233,1.0948297)" />
    <path
       transform="matrix(0.899969,0.4359538,-0.4359538,0.899969,8.6574518,-23.80688)"
       d="M 55.962085 6.8499207 A 1.2890996 2.4518168 0 1 1  53.383886,6.8499207 A 1.2890996 2.4518168 0 1 1  55.962085 6.8499207 z"
       sodipodi:ry="2.4518168"
       sodipodi:rx="1.2890996"
       sodipodi:cy="6.8499207"
       sodipodi:cx="54.672985"
       id="path5245"
       style="opacity:1;fill:url(#radialGradient3425);fill-opacity:1;stroke:none;stroke-width:4;stroke-linecap:round;stroke-linejoin:round;stroke-miterlimit:4;stroke-dasharray:none;stroke-dashoffset:1.08779998;stroke-opacity:1"
       sodipodi:type="arc" />
    <path
       sodipodi:type="arc"
       style="opacity:1;fill:url(#radialGradient3427);fill-opacity:1;stroke:none;stroke-width:4;stroke-linecap:round;stroke-linejoin:round;stroke-miterlimit:4;stroke-dasharray:none;stroke-dashoffset:1.08779998;stroke-opacity:1"
       id="path5261"
       sodipodi:cx="54.672985"
       sodipodi:cy="6.8499207"
       sodipodi:rx="1.2890996"
       sodipodi:ry="2.4518168"
       d="M 55.962085 6.8499207 A 1.2890996 2.4518168 0 1 1  53.383886,6.8499207 A 1.2890996 2.4518168 0 1 1  55.962085 6.8499207 z"
       transform="matrix(-0.899969,0.4359538,0.4359538,0.899969,119.08978,-23.80688)" />
    <g
       id="g5317">
      <path
         style="fill:url(#linearGradient3429);fill-opacity:1;fill-rule:evenodd;stroke:none;stroke-width:1px;stroke-linecap:butt;stroke-linejoin:miter;stroke-opacity:1;filter:url(#filter5309)"
         d="M 51.361769,18.300158 C 47.31399,19.538268 43.502707,21.010153 39.835703,23.200199 C 38.838725,23.56376 38.239385,23.203633 37.409163,22.69467 L 30.533965,16.581359 C 30.100651,16.223138 29.032451,15.656721 28.208531,16.379147 C 23.636725,20.338825 19.992825,24.584012 15.974724,28.71406 L 17.464573,27.925114 C 21.036923,24.466658 24.476222,20.963851 28.309637,17.592417 C 28.879576,17.120343 29.732198,17.301563 30.230648,17.794629 L 36.814794,23.598489 C 37.820831,24.58216 39.105219,24.977955 40.442338,24.514575 C 44.087158,22.164406 47.913748,20.535239 51.939844,18.94762 C 52.785283,18.599047 53.455728,17.247499 53.342533,16.140136 C 53.225179,16.85456 52.34317,17.987134 51.361769,18.300158 z "
         id="path5265"
         sodipodi:nodetypes="cccccccccccccc" />
      <path
         transform="matrix(0.2034271,1.2369315,-0.9790901,0.2569992,24.508092,-52.470535)"
         d="M 55.962085 6.8499207 A 1.2890996 2.4518168 0 1 1  53.383886,6.8499207 A 1.2890996 2.4518168 0 1 1  55.962085 6.8499207 z"
         sodipodi:ry="2.4518168"
         sodipodi:rx="1.2890996"
         sodipodi:cy="6.8499207"
         sodipodi:cx="54.672985"
         id="path5313"
         style="opacity:1;fill:url(#radialGradient3431);fill-opacity:1;stroke:none;stroke-width:4;stroke-linecap:round;stroke-linejoin:round;stroke-miterlimit:4;stroke-dasharray:none;stroke-dashoffset:1.08779998;stroke-opacity:1"
         sodipodi:type="arc" />
    </g>
    <g
       transform="matrix(-1,0,0,1,128.37557,0)"
       id="g5331">
      <path
         sodipodi:nodetypes="cccccccccccccc"
         id="path5333"
         d="M 51.361769,18.300158 C 47.31399,19.538268 43.502707,21.010153 39.835703,23.200199 C 38.838725,23.56376 38.668341,22.703185 37.838119,22.194222 L 30.962921,16.080911 C 30.529607,15.72269 29.032451,15.656721 28.208531,16.379147 C 22.994884,19.696984 19.49462,24.085807 15.974724,28.71406 L 17.464573,27.925114 C 19.948131,25.060545 23.468546,21.513493 28.309637,17.592417 C 28.879576,17.120343 30.161154,16.801115 30.659604,17.294181 L 37.24375,23.098041 C 38.249787,24.081712 39.105219,24.977955 40.442338,24.514575 C 44.087158,22.164406 47.913748,20.535239 51.939844,18.94762 C 52.785283,18.599047 53.455728,17.247499 53.342533,16.140136 C 53.225179,16.85456 52.34317,17.987134 51.361769,18.300158 z "
         style="fill:url(#linearGradient3433);fill-opacity:1;fill-rule:evenodd;stroke:none;stroke-width:1px;stroke-linecap:butt;stroke-linejoin:miter;stroke-opacity:1;filter:url(#filter5309)" />
      <path
         sodipodi:type="arc"
         style="opacity:1;fill:url(#radialGradient3435);fill-opacity:1;stroke:none;stroke-width:4;stroke-linecap:round;stroke-linejoin:round;stroke-miterlimit:4;stroke-dasharray:none;stroke-dashoffset:1.08779998;stroke-opacity:1"
         id="path5335"
         sodipodi:cx="54.672985"
         sodipodi:cy="6.8499207"
         sodipodi:rx="1.2890996"
         sodipodi:ry="2.4518168"
         d="M 55.962085 6.8499207 A 1.2890996 2.4518168 0 1 1  53.383886,6.8499207 A 1.2890996 2.4518168 0 1 1  55.962085 6.8499207 z"
         transform="matrix(0.2034271,1.2369315,-0.9790901,0.2569992,24.508092,-52.470535)" />
    </g>
    <path
       sodipodi:type="arc"
       style="opacity:0.31970263;fill:url(#radialGradient3439);fill-opacity:1;stroke:none;stroke-width:4;stroke-linecap:round;stroke-linejoin:round;stroke-miterlimit:4;stroke-dasharray:none;stroke-dashoffset:1.08779998;stroke-opacity:1;filter:url(#filter5505)"
       id="path5509"
       sodipodi:cx="54.672985"
       sodipodi:cy="6.8499207"
       sodipodi:rx="1.2890996"
       sodipodi:ry="2.4518168"
       d="M 55.962085 6.8499207 A 1.2890996 2.4518168 0 1 1  53.383886,6.8499207 A 1.2890996 2.4518168 0 1 1  55.962085 6.8499207 z"
       transform="matrix(0.9946903,-0.4812292,0.3574506,0.9612934,-39.943898,50.082486)"
       inkscape:transform-center-x="-0.70774134"
       inkscape:transform-center-y="0.60663507" />
    <path
       sodipodi:nodetypes="cssssccscsc"
       id="path5513"
       d="M 109.72078,50.196512 C 109.90912,50.933157 109.69575,52.311579 110.19226,53.441451 C 110.48274,54.102469 110.88736,54.526819 111.41864,54.546603 C 116.20582,54.724865 118.36563,54.681116 121.52923,54.900474 C 122.00058,54.933156 122.58757,55.226399 122.81784,56.141217 C 123.23273,57.789461 123.16843,61.128778 123.60189,62.710901 C 124.3426,65.546272 123.89819,57.905429 123.55134,55.608215 C 123.26906,54.022185 122.5811,53.327607 121.73144,53.28278 C 118.36035,53.104927 114.984,53.218169 111.31754,53.080569 C 111.06358,53.114284 110.78853,52.816722 110.53609,52.38652 C 110.086,51.619466 110.11888,50.537973 109.72078,50.196512 z "
       style="fill:url(#linearGradient3441);fill-opacity:1;fill-rule:evenodd;stroke:none;stroke-width:1px;stroke-linecap:butt;stroke-linejoin:miter;stroke-opacity:1;filter:url(#filter5581)" />
    <path
       transform="matrix(-1,0,0,1,128.17026,0)"
       style="fill:url(#linearGradient3443);fill-opacity:1;fill-rule:evenodd;stroke:none;stroke-width:1px;stroke-linecap:butt;stroke-linejoin:miter;stroke-opacity:1;filter:url(#filter5581)"
       d="M 109.72078,50.196512 C 109.90912,50.933157 109.69575,52.311579 110.19226,53.441451 C 110.48274,54.102469 110.88736,54.526819 111.41864,54.546603 C 116.20582,54.724865 118.36563,54.681116 121.52923,54.900474 C 122.00058,54.933156 122.58757,55.226399 122.81784,56.141217 C 123.23273,57.789461 123.16843,61.128778 123.60189,62.710901 C 124.3426,65.546272 123.89819,57.905429 123.55134,55.608215 C 123.26906,54.022185 122.5811,53.327607 121.73144,53.28278 C 118.36035,53.104927 114.984,53.218169 111.31754,53.080569 C 111.06358,53.114284 110.78853,52.816722 110.53609,52.38652 C 110.086,51.619466 110.11888,50.537973 109.72078,50.196512 z "
       id="path5585"
       sodipodi:nodetypes="cssssccscsc" />
    <path
       id="path5589"
       d="M 48.310016,64.191133 C 48.305267,64.34987 48.262848,64.502928 48.262848,64.662809 C 48.262848,73.339333 55.340282,80.369599 64.016806,80.369599 C 72.69333,80.369599 79.723601,73.339336 79.723596,64.662809 C 79.723596,64.502928 79.681177,64.34987 79.676428,64.191133 C 79.448061,72.668853 72.549344,79.473416 64.016806,79.473416 C 55.484266,79.473416 48.538388,72.668853 48.310016,64.191133 z "
       style="opacity:0.87360595;fill:url(#linearGradient3445);fill-opacity:1;stroke:none;stroke-width:4;stroke-linecap:round;stroke-linejoin:round;stroke-miterlimit:4;stroke-dasharray:none;stroke-dashoffset:1.08779998;stroke-opacity:1;filter:url(#filter5876)"
       transform="matrix(1.0753515,0,0,1.0753515,-4.8219879,-5.4464369)" />
    <path
       id="path5596"
       d="M 79.676428,63.990452 C 79.681177,63.831715 79.723596,63.678657 79.723596,63.518776 C 79.723596,54.842252 72.646162,47.811986 63.969638,47.811986 C 55.293114,47.811986 48.262843,54.842249 48.262848,63.518776 C 48.262848,63.678657 48.305267,63.831715 48.310016,63.990452 C 48.538383,55.512732 55.4371,48.708169 63.969638,48.708169 C 72.502178,48.708169 79.448056,55.512732 79.676428,63.990452 z "
       style="opacity:0.87360595;fill:#565656;fill-opacity:1;stroke:none;stroke-width:4;stroke-linecap:round;stroke-linejoin:round;stroke-miterlimit:4;stroke-dasharray:none;stroke-dashoffset:1.08779998;stroke-opacity:1;filter:url(#filter5718)"
       transform="matrix(1.065124,0,0,1.065124,-4.167497,-3.6405131)" />
    <path
       sodipodi:nodetypes="cssscsc"
       style="opacity:0.87360595;fill:#ffffff;fill-opacity:1;stroke:none;stroke-width:4;stroke-linecap:round;stroke-linejoin:round;stroke-miterlimit:4;stroke-dasharray:none;stroke-dashoffset:1.08779998;stroke-opacity:1;filter:url(#filter5836)"
       d="M 80.264493,64.297087 C 80.26942,64.132398 80.313429,63.973601 80.313429,63.807725 C 80.313429,54.805862 72.970617,47.511986 63.968754,47.511986 C 54.966891,47.511986 47.67301,54.805859 47.673015,63.807725 C 47.673015,63.973601 47.717024,64.132398 47.721951,64.297087 C 47.958881,55.501483 55.116276,48.026774 63.968754,48.026774 C 72.821234,48.026774 80.027557,55.501483 80.264493,64.297087 z "
       id="path5722"
       transform="matrix(1.1049075,0,0,1.1049075,-6.7133663,-5.8648028)" />
    <path
       sodipodi:nodetypes="cssscsc"
       style="opacity:0.34572491;fill:url(#linearGradient3447);fill-opacity:1;stroke:none;stroke-width:4;stroke-linecap:round;stroke-linejoin:round;stroke-miterlimit:4;stroke-dasharray:none;stroke-dashoffset:1.08779998;stroke-opacity:1;filter:url(#filter5876)"
       d="M 48.310016,64.191133 C 48.305267,64.34987 48.262848,64.502928 48.262848,64.662809 C 48.262848,73.339333 55.340282,81.369599 64.016806,81.369599 C 72.69333,81.369599 79.723601,73.339336 79.723596,64.662809 C 79.723596,64.502928 79.681177,64.34987 79.676428,64.191133 C 79.448061,72.668853 72.549344,79.473416 64.016806,79.473416 C 55.484266,79.473416 48.538388,72.668853 48.310016,64.191133 z "
       id="path5888"
       transform="matrix(1.1379993,0,0,1.1379993,-8.8310182,-10.043638)" />
    <path
       sodipodi:nodetypes="ccccccc"
       id="path5890"
       d="M 112.31492,97.901603 C 112.36723,98.459206 112.1884,98.939761 111.95746,99.402948 L 108.5973,103.764 L 111.67149,99.402948 C 111.53652,98.886575 111.48142,98.330267 111.17104,97.901603 C 109.38533,95.700951 107.11057,93.581807 106.09506,91.252789 L 112.31492,97.901603 z "
       style="fill:#ffffff;fill-opacity:1;fill-rule:evenodd;stroke:none;stroke-width:1px;stroke-linecap:butt;stroke-linejoin:miter;stroke-opacity:1;filter:url(#filter5960)" />
    <path
       transform="matrix(-1,0,0,1,128.41914,0)"
       style="fill:#ffffff;fill-opacity:1;fill-rule:evenodd;stroke:none;stroke-width:1px;stroke-linecap:butt;stroke-linejoin:miter;stroke-opacity:1;filter:url(#filter5960)"
       d="M 112.31492,97.901603 C 112.36723,98.459206 112.1884,98.939761 111.95746,99.402948 L 108.5973,103.764 L 111.67149,99.402948 C 111.53652,98.886575 111.48142,98.330267 111.17104,97.901603 C 109.38533,95.700951 107.11057,93.581807 106.09506,91.252789 L 112.31492,97.901603 z "
       id="path5964"
       sodipodi:nodetypes="ccccccc" />
    <path
       sodipodi:type="arc"
       style="opacity:1;fill:none;fill-opacity:0.07755103;stroke:url(#linearGradient3449);stroke-width:4.31663704;stroke-linecap:round;stroke-linejoin:round;stroke-miterlimit:4;stroke-dasharray:none;stroke-dashoffset:1.08779998;stroke-opacity:1;filter:url(#filter3310)"
       id="path3300"
       sodipodi:cx="310.84995"
       sodipodi:cy="108.83997"
       sodipodi:rx="55.192307"
       sodipodi:ry="55.192307"
       d="M 366.04225 108.83997 A 55.192307 55.192307 0 1 1  255.65764,108.83997 A 55.192307 55.192307 0 1 1  366.04225 108.83997 z"
       transform="matrix(0.5892134,0,0,0.5892134,-119.15695,-0.1299716)" />
    <path
       id="path3326"
       d="M 63.999999,31.46875 C 46.048934,31.46875 31.468751,46.048934 31.46875,64 C 31.46875,81.951066 46.048937,96.531253 63.999999,96.53125 C 81.951069,96.53125 96.531249,81.951065 96.531249,64 C 96.531249,46.048934 81.951069,31.468751 63.999999,31.46875 z M 63.999999,49.40625 C 72.050639,49.40625 78.593749,55.949358 78.593749,64 C 78.593749,72.050642 72.050639,78.59375 63.999999,78.59375 C 55.949359,78.59375 49.406249,72.050642 49.406249,64 C 49.406249,55.949358 55.949359,49.40625 63.999999,49.40625 z "
       style="opacity:1;fill:#343434;fill-opacity:0.07755103;stroke:none;stroke-width:1;stroke-linecap:round;stroke-linejoin:round;stroke-miterlimit:4;stroke-dasharray:none;stroke-dashoffset:1.08779998;stroke-opacity:1;filter:url(#filter3310)" />
  </g>
</svg>
